<svg width="227" height="64" viewBox="0 0 227 64" fill="none" xmlns="http://www.w3.org/2000/svg">
<g clip-path="url(#clip0_1503_89)">
<path d="M225.691 9.63428C224.932 8.91054 223.912 8.50618 222.854 8.50618C222.769 8.50618 222.687 8.50618 222.602 8.51497L211.77 9.17132C211.125 9.20941 210.504 9.39987 209.959 9.7134C209.217 8.95742 208.183 8.50032 207.07 8.4886C207.07 8.4886 195.853 8.36553 195.836 8.36553C194.763 8.36553 193.784 8.77282 193.058 9.43796L186.04 8.43293C185.844 8.40363 185.647 8.39191 185.451 8.39191C184.534 8.39191 183.64 8.69371 182.917 9.25923C182.559 9.53759 182.254 9.87162 182.017 10.2437C181.419 9.90971 180.728 9.71926 179.998 9.71926C179.931 9.71926 179.863 9.71926 179.796 9.72512L171.732 10.109C170.818 10.1529 169.983 10.4899 169.321 11.029C168.612 9.84525 167.293 9.06584 165.819 9.06584C165.761 9.06584 165.699 9.06584 165.638 9.06877L160.533 9.28853C160.337 8.75524 160.082 8.23075 159.771 7.71504C158.922 6.30858 157.665 5.37387 156.024 4.92556C155.754 4.52413 155.406 4.11098 154.957 3.73299C153.943 2.88325 152.642 2.41443 151.292 2.41443C150.486 2.41443 149.671 2.57559 148.857 2.90083L148.798 2.92427C148.619 2.99753 148.438 3.07371 148.259 3.1499C147.277 2.09505 146.146 1.26875 144.898 0.688582L144.866 0.673931C144.508 0.506914 143.767 0.158228 142.744 0.0380922C142.516 0.011721 142.287 -0.00292969 142.059 -0.00292969C141.3 -0.00292969 140.553 0.143577 139.844 0.43073C139.422 0.600678 139.026 0.814578 138.63 1.08415C138.071 1.468 137.652 1.86357 137.365 2.13607C137.327 2.17123 137.291 2.20639 137.247 2.24741L137.139 2.34997C136.896 2.57266 136.623 2.82758 136.333 3.11766C136.263 3.18799 136.196 3.26124 136.128 3.33742C135.99 3.49565 135.847 3.64802 135.7 3.80625C135.484 4.04359 135.24 4.3073 134.991 4.59738C134.262 4.28972 133.471 4.12856 132.659 4.12856C131.847 4.12856 130.977 4.29851 130.148 4.63254C129.483 4.90212 128.835 5.27131 128.223 5.7372C127.308 6.42872 125.697 7.93187 125.167 10.2027C125.105 10.4635 125.061 10.7272 125.035 10.988C122.998 9.96832 120.634 9.27974 117.964 8.92812C116.596 8.75231 115.186 8.66148 113.78 8.66148C110.812 8.66148 107.782 9.0336 104.081 9.85404C103.964 9.71633 103.841 9.58447 103.706 9.4614C102.956 8.7904 101.977 8.42121 100.964 8.42121C100.902 8.42121 100.841 8.42121 100.779 8.42414L80.2241 9.33541C79.0345 9.38815 77.9826 9.93609 77.2764 10.7712L72.6995 8.60874C72.1428 8.34502 71.5363 8.21317 70.9297 8.21317C70.4521 8.21317 69.9745 8.29521 69.5203 8.4593C68.5036 8.82557 67.6832 9.57275 67.2378 10.5309C67.0913 10.3404 66.9272 10.1617 66.7455 9.99762C65.9954 9.31783 65.0079 8.94277 63.9883 8.94277C63.9326 8.94277 63.8798 8.94277 63.8242 8.9457L54.0024 9.33248C52.6867 9.38522 51.5352 10.0445 50.832 11.029C50.1522 9.81595 48.857 9.01602 47.3949 8.97207L34.0921 8.57943C34.0511 8.57943 34.01 8.57943 33.969 8.57943C33.5559 8.57943 33.1544 8.64097 32.7735 8.75524C32.2754 8.54134 31.7245 8.42414 31.1502 8.42414C31.0858 8.42414 31.0184 8.42414 30.951 8.43L3.87362 9.70168C2.78654 9.75149 1.76392 10.2291 1.04018 11.0202C0.301782 11.8114 -0.0644846 12.8545 0.0087688 13.9152L0.515682 21.1351C0.659259 23.1862 2.3939 24.786 4.50067 24.8153L8.87243 24.8768L8.47393 40.9223C8.44756 42.0386 8.90466 43.1111 9.73389 43.8817C10.4899 44.582 11.492 44.9688 12.5292 44.9688C12.6289 44.9688 12.7285 44.9658 12.831 44.9571L23.4997 44.1835C23.7692 44.163 35.2788 44.8398 35.2788 44.8398C35.3784 44.8457 35.478 44.8516 35.5777 44.8516C37.4442 44.8516 39.085 43.6033 39.5216 41.8101L39.5392 41.7368C39.9905 43.4891 41.6138 44.7226 43.4685 44.7226C43.6004 44.7226 43.7352 44.7168 43.87 44.7021L49.9002 44.1249C50.1404 44.5732 50.4686 44.9805 50.873 45.3175C51.6114 45.9299 52.5461 46.261 53.5013 46.261C53.7445 46.261 53.9906 46.2405 54.2368 46.1965L64.0293 44.4384C65.5061 44.1747 66.6664 43.1521 67.1323 41.8365L70.4609 45.9152C70.8418 46.3811 71.3224 46.7532 71.8615 47.0081V56.7977C71.8615 58.9807 73.6782 60.7476 75.9168 60.7476H84.6545C85.0325 60.7476 85.3988 60.6948 85.7445 60.601C86.0961 60.6977 86.4624 60.7476 86.8287 60.7476H93.8698C94.699 60.7476 95.4667 60.5043 96.1113 60.0912L96.1348 60.3666C96.3047 62.4177 98.0628 64 100.178 64C104.48 64 107.134 62.6258 108.576 60.7476C108.576 60.7476 108.576 60.7476 108.579 60.7476H115.62C115.834 60.7476 116.045 60.73 116.253 60.7007C116.458 60.7329 116.669 60.7476 116.886 60.7476H120.678C121.316 60.7476 121.917 60.604 122.456 60.3491C123.001 60.6069 123.608 60.7476 124.232 60.7476H128.489C128.706 60.7476 128.92 60.73 129.131 60.6977C129.339 60.73 129.553 60.7476 129.773 60.7476H134.988C136.911 60.7476 138.557 60.5043 139.975 60.0092C140.309 60.2113 140.676 60.3725 141.074 60.475C142.741 60.9116 144.526 61.0025 145.727 61.0025C150.436 61.0025 153.923 58.591 154.831 54.9459C154.925 54.9488 155.019 54.9517 155.115 54.9517C158.986 54.9517 161.908 52.1417 161.908 48.4146C161.908 46.8997 161.427 45.5372 160.595 44.4531C160.917 44.5468 161.257 44.6025 161.603 44.6142L173.124 45.0069C173.171 45.0069 173.221 45.0069 173.268 45.0069C174.094 45.0069 174.876 44.7637 175.527 44.3359C176.101 44.6347 176.752 44.8018 177.44 44.8018C177.484 44.8018 177.528 44.8018 177.572 44.8018L190.201 44.4091C191.054 44.3827 191.848 44.0985 192.495 43.6268C193.093 44.0516 193.82 44.3212 194.611 44.371L206.082 45.1065C206.17 45.1124 206.261 45.1153 206.349 45.1153C207.518 45.1153 208.634 44.623 209.405 43.7586C209.675 43.4598 209.891 43.1257 210.053 42.7682C210.8 43.9081 212.092 44.5937 213.469 44.5937C213.58 44.5937 213.692 44.5879 213.803 44.5791L222.054 43.9198C224.097 43.7557 225.691 42.1353 225.776 40.1428L226.924 12.6084C226.971 11.492 226.529 10.4078 225.708 9.62549L225.691 9.63428Z" fill="#180F2E"/>
<path d="M142.991 40.4566C138.798 40.4566 135.196 39.0794 132.568 36.4745C129.916 33.8433 128.516 30.2011 128.516 25.9407C128.516 21.6803 129.916 18.0176 132.568 15.3922C135.188 12.7961 138.792 11.4248 142.991 11.4248C147.189 11.4248 150.817 12.8342 153.419 15.3922C156.094 18.0235 157.506 21.6715 157.506 25.9407C157.506 30.2099 156.091 33.8374 153.419 36.4745C150.814 39.0413 147.11 40.4566 142.993 40.4566H142.991ZM142.824 18.8029C139.348 18.8029 137.013 21.1206 137.013 24.5723C137.013 28.024 139.401 30.3828 142.824 30.3828C146.246 30.3828 148.634 27.9918 148.634 24.5723C148.634 21.1529 146.246 18.8029 142.824 18.8029Z" fill="#FEFFF3"/>
<path d="M114.12 40.5269C110.747 40.5269 106.982 39.9526 103.214 38.8626L104.031 12.8664C107.87 11.9346 110.879 11.5186 113.765 11.5186C114.993 11.5186 116.215 11.5977 117.399 11.7559C121.185 12.2657 124.132 13.5784 126.154 15.6647C128.483 18.0645 129.667 21.566 129.667 26.0667C129.667 30.2392 128.642 33.562 126.62 35.9471C124.56 38.3762 121.445 39.853 117.361 40.3364C116.332 40.4624 115.242 40.5269 114.117 40.5269H114.12ZM115.512 18.7941C114.732 18.7941 113.9 18.8908 113.226 19.0578L113.036 19.1047L113.077 31.1241L113.127 31.1915C113.672 31.9182 114.735 32.3723 115.901 32.3723C118.187 32.3723 119.722 29.6356 119.722 25.5656C119.722 21.4957 118.228 18.8908 115.913 18.7999C115.778 18.7941 115.647 18.7911 115.515 18.7911L115.512 18.7941Z" fill="#FEFFF3"/>
<path d="M161.483 40.1724L154.755 12.4064L165.544 11.9317L167.949 30.6729H169.136L171.627 12.9895L179.649 12.5969L182.345 32.0002H183.547L185.079 11.2432L196.12 12.8635L189.662 39.9643L177.097 40.3658L175.764 31.0685L174.967 31.2472L172.945 40.5738L161.483 40.1724Z" fill="#FEFFF3"/>
<path d="M194.444 39.935L195.414 11.2139L206.542 11.3399L211.928 23.9101L212.997 23.4413L211.515 12.0314L222.292 11.3604L221.149 39.4809L212.942 40.1519L203.556 24.4112L202.554 24.6251L205.857 40.6852L194.444 39.935Z" fill="#FEFFF3"/>
<path d="M151.145 41.4761C151.084 41.5025 151.022 41.5259 150.961 41.5523C150.899 41.5787 150.838 41.605 150.776 41.6314C150.629 41.6929 150.483 41.7486 150.336 41.8043C149.466 42.1295 148.754 42.3756 148.095 42.5837C147.219 42.8591 146.343 43.0525 145.601 43.2078C144.69 43.3953 143.755 43.5272 142.829 43.5975C141.886 43.6708 140.863 43.7235 139.782 43.5975C139.448 43.5594 139.146 43.5096 138.853 43.451C138.798 43.4393 138.745 43.4276 138.692 43.4158C137.892 43.243 137.127 42.988 136.418 42.6599C135.651 42.3053 134.947 41.8629 134.329 41.3442C133.989 41.06 133.667 40.7377 133.339 40.3539C133.04 40.3304 132.773 40.2835 132.553 40.2396C132.067 40.1429 131.581 39.9964 131.115 39.803C129.653 39.1994 128.314 38.1123 127.241 36.6648C126.347 35.4576 125.284 33.5296 125.304 31.1913C125.319 29.445 126.031 27.8627 127.259 26.8518C127.276 26.8371 127.294 26.8225 127.311 26.8108C127.03 26.5529 126.796 26.2511 126.617 25.9171C126.213 25.1611 126.101 24.4637 126.292 23.8396C126.201 23.7136 126.101 23.5671 126.013 23.3942C125.679 22.7291 125.744 21.9966 126.189 21.3842C125.958 21.3285 125.761 21.2406 125.606 21.1468C125.571 21.1263 125.533 21.1087 125.498 21.0882C125.375 21.0238 125.219 20.9446 125.061 20.8216C124.264 20.2004 123.71 19.1221 123.652 18.076C123.605 17.2556 123.874 16.5172 124.408 15.9956C124.46 15.9458 124.51 15.899 124.566 15.8521C124.709 15.7231 124.853 15.5854 125.005 15.4389C125.257 15.1957 125.515 14.9467 125.814 14.7093C126.224 14.387 126.646 14.1907 126.969 14.0588C127.121 13.9944 127.276 13.9358 127.435 13.8772L127.458 13.8684C127.643 13.798 127.827 13.7248 128.012 13.6545C128.486 13.4699 128.976 13.2794 129.477 13.1124C129.685 13.045 129.884 12.9923 130.077 12.96C129.814 12.5791 129.556 12.166 129.345 11.7235C129.336 11.7089 129.327 11.6913 129.319 11.6737C129.005 11.1492 128.911 10.5544 129.049 9.94785C129.31 8.80803 130.245 7.9788 130.634 7.67407C130.857 7.50119 131.206 7.26092 131.613 7.09097C132.729 6.62801 133.435 7.04409 133.761 7.33417C134.036 7.5803 134.276 7.87331 134.493 8.22493C134.707 8.57069 134.906 8.93988 135.109 9.35303C135.144 9.42629 135.182 9.5054 135.217 9.58158C135.346 9.40871 135.481 9.24755 135.61 9.09225C135.695 8.9897 135.782 8.88421 135.865 8.77873C136.055 8.53553 136.234 8.27181 136.424 7.99052C136.541 7.81764 136.662 7.64183 136.782 7.47189C137.122 6.99427 137.482 6.52252 137.854 6.06835C138.097 5.76948 138.349 5.48819 138.595 5.21568C138.759 5.03401 138.924 4.84942 139.082 4.66482C139.096 4.65017 139.108 4.63259 139.123 4.61794C139.346 4.38646 139.577 4.16963 139.8 3.95866L139.914 3.85024C139.967 3.80043 140.017 3.75062 140.069 3.7008C140.286 3.48983 140.529 3.25249 140.828 3.04445C140.975 2.9419 141.115 2.86278 141.259 2.80418C141.54 2.68698 141.83 2.64596 142.123 2.68112C142.475 2.72214 142.759 2.85986 142.967 2.95948L143.014 2.97999C143.861 3.38435 144.631 3.99382 145.302 4.78788C145.408 4.91095 145.511 5.04281 145.613 5.17466C145.889 5.53507 146.34 6.12696 146.351 6.86242C147.266 6.52838 148.2 6.18263 149.1 5.81343L149.123 5.80464C149.29 5.73432 149.457 5.66106 149.624 5.58781C149.806 5.50577 149.988 5.42665 150.172 5.35047L150.222 5.32996C151.172 4.94318 151.781 5.21275 152.124 5.5087C152.572 5.89547 152.713 6.44048 152.789 6.73642C152.833 6.90637 152.871 7.08218 152.906 7.26678C152.933 7.26678 152.962 7.27264 152.991 7.27264C153.1 7.28143 153.223 7.29315 153.354 7.31366L154.28 7.45724C154.717 7.52463 155.535 7.65355 156.068 8.5619C156.428 9.17429 156.651 9.78669 156.73 10.3815C156.794 10.8679 156.745 11.3221 156.668 11.7411C156.809 11.8554 156.923 11.9667 157.017 12.0575C157.249 12.2832 157.952 12.9688 157.841 14.0032C157.835 14.0676 157.823 14.1321 157.811 14.1995C157.8 14.2581 157.788 14.3167 157.773 14.3753C159.215 14.3606 160.659 14.9701 161.793 16.0836C163.461 17.7215 164.073 19.8371 164.296 21.3226C164.562 23.1071 164.381 24.8212 163.777 26.2804C163.584 26.7492 163.343 27.1976 163.068 27.6107C162.945 27.7953 162.79 28.018 162.593 28.2436C162.634 28.7476 162.634 29.2047 162.593 29.6442C162.52 30.45 162.335 31.2587 162.045 32.0528C161.776 32.7882 161.415 33.5091 160.973 34.1947C160.946 34.2387 160.914 34.2855 160.885 34.3295C160.718 34.5815 160.539 34.8276 160.334 35.0855C159.651 35.944 158.89 36.6326 158.172 37.2479C157.465 37.8515 156.715 38.417 155.939 38.9298C155.303 39.3459 154.547 39.8294 153.735 40.2542C153.12 40.5736 152.44 40.9018 151.596 41.2886C151.453 41.353 151.309 41.4175 151.163 41.4761H151.145Z" fill="#FEFFF3"/>
<path d="M153.636 9.10708C153.34 9.0602 153.047 9.01332 152.751 8.96936C152.566 8.94006 152.379 8.94006 152.194 8.91076C152.106 8.89611 152.03 8.86681 151.945 8.84337C151.854 8.81993 151.766 8.82579 151.693 8.76132C151.561 8.64705 151.573 8.42436 151.547 8.26906C151.514 8.08153 151.476 7.894 151.426 7.70648C151.365 7.47206 151.283 7.18491 151.092 7.02082C150.852 6.81571 150.524 6.90655 150.266 7.01203C149.906 7.15854 149.551 7.32849 149.191 7.47792C148.145 7.90865 147.081 8.2925 146.017 8.67928C145.748 8.77597 145.478 8.87267 145.206 8.95471C145.109 8.98401 145.012 9.01039 144.916 9.03383C144.614 9.40302 144.294 9.7605 143.943 10.0887C143.527 10.4784 142.868 10.5048 142.451 10.0887C142.059 9.69604 142.035 8.98694 142.451 8.59724C142.958 8.12255 143.401 7.58927 143.823 7.0384C144.066 6.72195 144.517 6.67214 144.892 6.79227C144.834 6.7073 144.772 6.62819 144.716 6.552C144.631 6.43773 144.541 6.32638 144.45 6.21797C143.925 5.59678 143.313 5.084 142.58 4.73532C142.405 4.65034 142.226 4.55951 142.029 4.53314C141.816 4.50677 141.631 4.59174 141.461 4.71188C141.18 4.9082 140.945 5.16019 140.696 5.3946C140.45 5.62901 140.204 5.85756 139.97 6.10076C139.586 6.54907 139.181 6.97101 138.806 7.42811C138.464 7.85005 138.132 8.28078 137.816 8.72323C137.511 9.15103 137.233 9.59641 136.911 10.0096C136.667 10.3202 136.398 10.6132 136.175 10.9413C135.911 11.3281 135.695 11.7471 135.554 12.1984C135.715 12.4386 135.879 12.676 136.026 12.9163C136.735 14.0737 134.9 15.1139 134.191 13.9565C133.849 13.3997 133.447 12.8635 133.16 12.2746C133.005 11.961 132.934 11.6094 132.849 11.2724C132.457 10.9912 132.234 10.4784 132.545 9.93631C132.551 9.93045 132.553 9.92459 132.559 9.91873C132.723 9.38544 133.339 9.0602 133.854 9.15689C133.746 9.01039 133.626 8.87267 133.491 8.7496C132.987 8.29836 132.17 8.7789 131.736 9.11587C131.238 9.50558 130.71 10.1092 130.564 10.745C130.488 11.0791 130.532 11.3897 130.71 11.6856C130.734 11.7266 130.757 11.7676 130.778 11.8116C131.08 12.4357 131.49 13.0042 131.909 13.555C132.085 13.7836 132.269 14.0063 132.454 14.226C132.551 14.3403 132.656 14.4487 132.756 14.5601C132.846 14.6597 132.978 14.7828 133.008 14.9205C133.013 14.9468 133.013 14.9761 133.002 14.9996C132.955 15.1021 132.802 15.0347 132.735 14.9996C132.515 14.8882 132.296 14.774 132.076 14.6626C131.871 14.5571 131.671 14.4399 131.449 14.3843C131.083 14.2905 130.696 14.3608 130.338 14.478C129.699 14.689 129.072 14.9468 128.445 15.1871C127.974 15.3658 127.528 15.5329 127.127 15.8493C126.717 16.1716 126.365 16.5613 125.972 16.9071C125.934 16.9423 125.896 16.9774 125.858 17.0126C125.114 17.7393 125.413 19.0578 126.057 19.8402C126.107 19.6878 126.198 19.5413 126.347 19.4036C127.106 18.7062 128.053 18.0704 128.627 17.206C129.377 16.0779 131.211 17.1181 130.461 18.2462C130.45 18.2638 130.435 18.2784 130.423 18.296C130.473 18.2491 130.529 18.2081 130.59 18.1817C130.69 18.1407 130.74 18.17 130.757 18.2257C130.746 18.2403 130.734 18.255 130.725 18.2696C130.365 18.7765 130.066 19.3157 129.825 19.8841C129.497 20.2094 129.163 20.5287 128.835 20.854C128.448 21.2408 128.003 21.5924 127.678 22.0407C127.467 22.3278 127.426 22.6443 127.59 22.9725C127.66 23.1131 127.757 23.242 127.848 23.368C127.924 23.4735 128.035 23.5878 128.038 23.7285C128.038 23.8486 127.965 23.9687 127.927 24.0771C127.777 24.5079 127.947 24.9796 128.152 25.3664C128.152 25.3664 128.152 25.3693 128.155 25.3723C128.246 25.2638 128.36 25.1701 128.472 25.0998C128.706 24.9532 128.999 24.9415 129.26 24.9972C129.521 25.0529 129.782 25.2697 129.91 25.4953C130.054 25.7502 130.057 26.0022 130.013 26.2835C130.007 26.3187 130.004 26.3539 129.998 26.389C129.984 26.5267 129.978 26.6644 129.987 26.8051C130.004 27.0835 129.861 27.353 129.679 27.5493C129.489 27.7574 129.207 27.8453 128.935 27.857C128.727 27.8658 128.498 27.7808 128.319 27.6548C127.499 28.443 127.027 29.6034 127.015 30.878C126.998 32.85 127.912 34.4996 128.68 35.5369C129.603 36.7822 130.746 37.7111 131.982 38.2268C132.372 38.3879 132.776 38.511 133.18 38.593C133.485 38.6546 133.837 38.7073 134.212 38.6956C134.297 38.804 134.385 38.9124 134.473 39.015C134.751 39.3431 135.026 39.6186 135.311 39.8559C135.841 40.2984 136.442 40.6763 137.101 40.9811C137.716 41.2653 138.381 41.488 139.076 41.6404C139.123 41.6521 139.17 41.6609 139.219 41.6697C139.474 41.7224 139.738 41.7634 140.028 41.7986C140.986 41.907 141.909 41.8601 142.765 41.7927C143.615 41.7283 144.464 41.6081 145.3 41.4353C145.985 41.2917 146.797 41.1159 147.594 40.8639C148.209 40.6705 148.877 40.4361 149.692 40.1343C149.824 40.0845 149.953 40.0346 150.082 39.979C150.14 39.9526 150.199 39.9292 150.257 39.9057C150.319 39.8823 150.377 39.8588 150.436 39.8325C150.565 39.7797 150.694 39.7241 150.82 39.6655C151.614 39.3021 152.25 38.9944 152.824 38.6956C153.565 38.3088 154.263 37.8634 154.852 37.4766C155.561 37.0107 156.247 36.4921 156.891 35.9413C157.545 35.3845 158.233 34.7604 158.834 34.0044C159.013 33.7788 159.168 33.5649 159.314 33.3452C159.341 33.3041 159.367 33.266 159.393 33.225C159.777 32.6273 160.094 32.0002 160.325 31.3615C160.574 30.6817 160.733 29.9872 160.794 29.3016C160.829 28.9324 160.826 28.5427 160.794 28.1149C160.782 27.9771 160.768 27.8394 160.75 27.7017C161.026 27.4468 161.234 27.1626 161.409 26.9018C161.641 26.559 161.837 26.1868 161.998 25.7971C162.511 24.5606 162.661 23.0926 162.432 21.5602C162.242 20.2826 161.72 18.4689 160.314 17.0888C159.323 16.116 158.051 15.6266 156.821 15.7438C156.46 15.779 156.1 15.8698 155.748 16.0134C155.71 15.9548 155.672 15.8991 155.634 15.8435C155.646 15.8259 155.658 15.8083 155.669 15.7907C155.924 15.3629 156.132 14.9117 156.229 14.4106C156.235 14.3755 156.241 14.3403 156.244 14.3051C156.29 13.8715 156.036 13.5257 155.74 13.2356C155.564 13.0657 155.388 12.8987 155.165 12.7961C155.13 12.7785 155.095 12.7639 155.066 12.7404C155.048 12.7258 155.033 12.7082 155.028 12.6877C155.016 12.6555 155.016 12.6232 155.025 12.5851C155.13 12.087 155.25 11.5801 155.183 11.0673C155.118 10.578 154.922 10.1092 154.673 9.68432C154.421 9.25652 154.105 9.16568 153.645 9.09243L153.636 9.10708Z" fill="#EBA46C"/>
<path d="M153.557 25.1904C152.997 25.1758 152.464 25.4395 152.027 25.7677C151.678 26.0314 151.382 26.3537 151.048 26.6291C150.703 26.9133 150.36 27.2034 150.005 27.4759C149.408 27.933 148.789 28.3491 148.13 28.7125C147.963 28.8062 146.076 29.7321 146.064 29.7028C146.079 29.7321 144.086 30.4119 143.905 30.4647C143.181 30.6756 142.451 30.8163 141.704 30.9159C141.259 30.9745 140.813 31.0126 140.365 31.0566C139.934 31.0976 139.495 31.08 139.064 31.1386C138.522 31.2148 137.96 31.4052 137.573 31.8125C137.168 32.2374 137.066 32.8439 137.221 33.3977C137.479 34.3149 138.203 34.9888 138.982 35.4811C139.627 35.8884 140.324 36.1755 141.071 36.3279C141.669 36.4509 142.279 36.5183 142.888 36.5213C144.333 36.5271 145.874 36.3542 147.242 35.8708C147.515 35.7741 147.79 35.6832 148.063 35.5865C148.189 35.5426 148.312 35.484 148.435 35.4313C148.561 35.3814 148.687 35.3346 148.807 35.276C149.068 35.1529 149.328 35.021 149.589 34.895C150.899 34.268 152.109 33.304 153.129 32.2755C153.56 31.8418 153.941 31.3642 154.277 30.8515C154.699 30.2156 154.989 29.5182 155.157 28.7769C155.359 27.8774 155.397 26.887 154.928 26.0578C154.647 25.5567 154.143 25.1992 153.557 25.1846V25.1904Z" fill="#FEFFF3"/>
<path d="M144.324 22.87C143.981 22.9257 143.656 23.0312 143.342 23.166C143.026 23.2949 142.721 23.4502 142.44 23.6524C142.126 23.878 141.991 24.1827 142.003 24.5607C142.018 25.0969 142.214 25.6244 142.381 26.1284C142.557 26.6646 142.759 27.1949 142.985 27.7136C143.187 28.1765 143.442 28.6834 143.928 28.9003C144.435 29.1229 145.024 28.9384 145.525 28.7889C145.569 28.7743 145.613 28.7596 145.654 28.742C145.695 28.7245 145.736 28.7069 145.777 28.6834C146.234 28.4344 146.785 28.1472 146.984 27.6315C147.178 27.1363 146.999 26.5942 146.814 26.1254C146.606 25.598 146.375 25.0823 146.12 24.5783C145.88 24.1036 145.645 23.5909 145.279 23.2011C145.021 22.9286 144.708 22.8056 144.327 22.8671L144.324 22.87Z" fill="#DA613D"/>
<path d="M157.424 15.3982C157.049 15.4362 156.671 15.53 156.302 15.6794C155.617 14.6422 154.948 13.8012 154.236 13.0687C152.724 11.5128 150.969 10.5576 149.018 10.2294C146.908 9.87485 144.614 10.0595 141.792 10.8154C140.614 11.129 139.559 11.5274 138.686 11.8761L138.651 11.8908C137.787 12.2629 136.758 12.7288 135.703 13.3383C133.175 14.8004 131.419 16.2948 130.18 18.0353C129.031 19.6469 128.466 21.5632 128.495 23.7315C128.51 24.7541 128.633 25.8236 128.879 27.0396C128.513 27.1949 128.179 27.3941 127.892 27.6344C126.895 28.4548 126.315 29.7587 126.303 31.2033C126.286 33.2603 127.238 34.9832 128.041 36.0673C129.005 37.3683 130.198 38.3382 131.49 38.8744C131.897 39.0443 132.319 39.1703 132.741 39.2553C133.06 39.3168 133.427 39.3755 133.819 39.3608C133.907 39.4751 133.998 39.5864 134.092 39.6948C134.385 40.0377 134.669 40.3248 134.968 40.5739C135.522 41.0339 136.149 41.4295 136.837 41.7489C137.479 42.0477 138.173 42.2792 138.9 42.4345C138.95 42.4462 138.997 42.455 139.05 42.4638C139.316 42.5195 139.592 42.5605 139.893 42.5986C140.893 42.7129 141.857 42.6631 142.75 42.5927C143.635 42.5253 144.526 42.3993 145.396 42.2177C146.114 42.0682 146.958 41.8836 147.79 41.6199C148.432 41.4178 149.129 41.1746 149.982 40.8581C150.12 40.8054 150.254 40.7526 150.389 40.6969C150.451 40.6706 150.512 40.6442 150.574 40.6178C150.635 40.5915 150.697 40.568 150.761 40.5416C150.896 40.486 151.031 40.4274 151.163 40.3658C151.992 39.9878 152.654 39.6655 153.255 39.3549C154.028 38.9535 154.758 38.4876 155.373 38.0833C156.115 37.5969 156.83 37.0577 157.504 36.4805C158.186 35.8974 158.904 35.2498 159.534 34.4587C159.722 34.2243 159.883 34.0016 160.035 33.773C160.064 33.732 160.091 33.691 160.117 33.647C160.519 33.0229 160.847 32.3666 161.09 31.7014C161.351 30.9894 161.515 30.2686 161.579 29.5507C161.615 29.1669 161.615 28.7596 161.579 28.3113C161.568 28.1677 161.553 28.0241 161.535 27.8805C161.823 27.6139 162.042 27.3179 162.221 27.0454C162.461 26.688 162.666 26.2983 162.836 25.891C163.37 24.5988 163.528 23.0692 163.291 21.4665C163.091 20.1333 162.546 18.2404 161.078 16.7988C160.044 15.7849 158.717 15.2722 157.433 15.3952L157.424 15.3982ZM133.131 35.6893C133.178 35.7802 133.222 35.871 133.268 35.9618C133.359 36.1435 133.447 36.3252 133.541 36.5068C133.567 36.5567 133.591 36.6065 133.617 36.6592C133.641 36.7032 133.67 36.7471 133.676 36.7999C133.676 36.8116 133.676 36.8262 133.676 36.835C133.67 36.8614 133.655 36.879 133.632 36.8936C133.567 36.9259 133.485 36.9112 133.418 36.9112C133.315 36.9112 133.216 36.8966 133.116 36.8878C132.943 36.8702 132.77 36.8438 132.6 36.8087C132.26 36.7383 131.929 36.6328 131.613 36.4981C130.543 36.038 129.629 35.0828 129.04 34.0983C128.343 32.9379 127.947 31.4348 128.434 30.125C128.557 29.7968 128.727 29.4804 128.993 29.246C129.257 29.0145 129.585 28.8504 129.916 28.7391C130.089 28.6805 130.362 28.616 130.526 28.7303C130.687 28.8416 130.71 29.079 130.705 29.2577C130.696 29.4628 130.57 29.5742 130.444 29.7148C130.007 30.1983 129.758 30.8253 129.673 31.4641C129.626 31.8274 129.606 32.1937 129.632 32.557C129.658 32.9057 129.714 33.2573 129.837 33.5855C129.89 33.7291 130.121 34.362 130.368 34.1627C130.482 34.069 130.426 33.899 130.397 33.7818C130.356 33.6148 130.324 33.4449 130.3 33.2749C130.242 32.8032 130.271 32.3226 130.379 31.8567C130.485 31.4084 130.658 30.9191 130.951 30.5528C131.097 30.3682 131.156 30.6378 131.191 30.7433C131.226 30.8429 131.258 30.9455 131.293 31.0451C131.358 31.2355 131.417 31.426 131.484 31.6135C131.537 31.7571 131.587 31.9124 131.528 32.0618C131.493 32.1439 131.44 32.2171 131.393 32.2904C131.062 32.8207 130.942 33.5621 131.185 34.1481C131.323 34.4792 131.551 34.7693 131.83 34.9861C132.008 35.1268 132.208 35.244 132.416 35.3348C132.521 35.3817 132.63 35.4227 132.741 35.4579C132.823 35.4842 132.908 35.496 132.987 35.5282C133.06 35.5604 133.107 35.619 133.142 35.6893H133.131ZM131.836 32.6127C131.853 32.6303 131.865 32.6537 131.874 32.6772C131.918 32.7914 131.959 32.9028 132.006 33.0141C132.161 33.3892 132.307 33.7672 132.46 34.1422C132.489 34.2155 132.518 34.2858 132.548 34.3591C132.553 34.3708 132.556 34.3854 132.556 34.3942C132.551 34.4558 132.422 34.4265 132.386 34.4147C132.322 34.3942 132.263 34.3561 132.208 34.3239C131.868 34.1188 131.674 33.7642 131.63 33.3745C131.604 33.1372 131.63 32.894 131.718 32.6713C131.736 32.6244 131.78 32.5629 131.833 32.6098L131.836 32.6127ZM159.194 27.2271C159.426 28.1853 159.484 29.1493 159.253 30.1162C159.109 30.7052 158.916 31.2736 158.617 31.804C158.104 32.7123 157.463 33.524 156.712 34.2477C155.915 35.0154 155.019 35.6747 154.084 36.2666C153.161 36.8467 152.197 37.4064 151.207 37.8635C150.709 38.0921 150.202 38.2942 149.701 38.5111C149.191 38.7162 148.69 38.9301 148.177 39.1205C147.154 39.4985 146.076 39.7827 145.015 40.023C143.937 40.2691 142.835 40.4362 141.728 40.4567C140.685 40.4743 139.659 40.3512 138.654 40.0728C138.065 39.9117 137.529 39.645 137.01 39.3286C136.16 38.8099 135.522 38.0862 135.009 37.2452C133.869 35.3729 133.019 33.3364 132.293 31.259C131.34 28.5398 130.183 25.5335 130.458 22.5858C130.517 21.9587 130.646 21.3375 130.857 20.7457C131.162 19.893 131.639 19.1429 132.193 18.4308C132.867 17.5606 133.711 16.8837 134.59 16.2362C136.064 15.155 137.675 14.2495 139.366 13.558C141.051 12.8519 142.829 12.3508 144.637 12.0754C145.719 11.9113 146.794 11.7941 147.887 11.9318C148.781 12.0461 149.648 12.2365 150.465 12.6233C151.034 12.8929 151.564 13.2416 152.051 13.643C154.327 15.5329 155.634 18.4777 156.885 21.0709C157.84 23.0517 158.679 25.094 159.2 27.2242L159.194 27.2271ZM158.843 22.1052C159.089 22.4129 159.206 22.7997 159.106 23.1835C159.089 23.248 159.074 23.3154 159.045 23.3769C159.027 23.4091 158.96 23.5234 158.91 23.4824C158.901 23.4736 158.895 23.4619 158.889 23.4502C158.86 23.3769 158.828 23.3037 158.799 23.2304C158.643 22.8583 158.479 22.4862 158.324 22.1111C158.277 21.9997 158.227 21.8884 158.177 21.78C158.166 21.7565 158.157 21.7331 158.157 21.7067C158.157 21.6364 158.233 21.6511 158.28 21.6686C158.5 21.7624 158.69 21.9177 158.84 22.1052H158.843ZM161.193 20.7808C161.471 21.8972 161.503 23.2158 161.07 24.297C160.941 24.6193 160.782 24.927 160.589 25.217C160.492 25.3635 160.393 25.5013 160.281 25.636C160.22 25.7152 160.155 25.7972 160.085 25.8675C160.035 25.9144 159.988 25.9847 159.918 26.0052C159.892 26.014 159.868 26.0082 159.848 25.9965C159.839 25.9877 159.83 25.9818 159.821 25.9701C159.792 25.932 159.78 25.8763 159.766 25.8294C159.748 25.7738 159.73 25.721 159.713 25.6683C159.648 25.4749 159.584 25.2815 159.519 25.091C159.487 24.9943 159.452 24.8977 159.423 24.801C159.399 24.7277 159.391 24.6515 159.42 24.5783C159.449 24.4992 159.502 24.4259 159.543 24.3526C159.599 24.2501 159.645 24.1446 159.689 24.0362C159.769 23.8252 159.827 23.6025 159.856 23.3769C159.9 23.0224 159.856 22.6561 159.719 22.3279C159.476 21.7419 158.869 21.2994 158.26 21.1617C158.172 21.1442 158.084 21.1266 158.002 21.0943C157.852 21.0328 157.779 20.8863 157.715 20.7486C157.63 20.5669 157.536 20.3911 157.448 20.2124C157.401 20.1157 157.354 20.0219 157.304 19.9281C157.254 19.8285 157.108 19.597 157.339 19.6234C157.802 19.6762 158.271 19.8988 158.664 20.1391C159.068 20.3911 159.429 20.7105 159.722 21.0855C159.827 21.2203 159.927 21.3639 160.015 21.5133C160.076 21.6159 160.158 21.7771 160.305 21.7624C160.624 21.7302 160.337 21.1207 160.273 20.9801C160.126 20.6607 159.918 20.3735 159.689 20.1069C159.449 19.8315 159.177 19.5853 158.887 19.3656C158.374 18.9729 157.756 18.7063 157.105 18.6711C156.915 18.6623 156.748 18.6711 156.595 18.5305C156.463 18.4103 156.314 18.2257 156.346 18.0323C156.381 17.836 156.622 17.6895 156.783 17.6075C157.096 17.4522 157.445 17.3379 157.794 17.3145C158.148 17.291 158.494 17.3936 158.81 17.5401C160.082 18.1232 160.864 19.4652 161.193 20.7808Z" fill="#180F2E"/>
<path d="M135.246 24.5195C135.176 24.3847 135.114 24.2441 135.035 24.1152C135.003 24.0536 134.971 23.9892 134.939 23.9276C134.93 23.9101 134.921 23.8925 134.912 23.8778C134.889 23.8397 134.859 23.8075 134.81 23.8016C134.774 23.7958 134.739 23.8046 134.704 23.8192C134.607 23.8632 134.517 23.9335 134.435 24.0009C134.367 24.0566 134.306 24.1298 134.294 24.2177C134.279 24.3203 134.326 24.4199 134.364 24.5107C134.405 24.6104 134.452 24.7071 134.502 24.8037C134.59 24.9737 134.687 25.1378 134.786 25.2989C134.889 25.463 135.015 25.6506 135.185 25.4835C135.208 25.4601 135.235 25.4367 135.258 25.4132C135.328 25.3458 135.402 25.2814 135.478 25.2169C135.58 25.1319 135.504 25.0118 135.454 24.921C135.384 24.7862 135.314 24.6514 135.246 24.5195Z" fill="#180F2E"/>
<path d="M135.771 23.1983C135.692 23.2393 135.613 23.2833 135.533 23.3272C135.457 23.3682 135.384 23.4093 135.311 23.4532C135.243 23.4942 135.217 23.5792 135.252 23.6525L135.815 24.7395C135.856 24.8186 135.958 24.845 136.032 24.7923C136.163 24.7014 136.298 24.6135 136.436 24.5344C136.503 24.4963 136.53 24.4114 136.494 24.341L135.973 23.2686C135.935 23.1924 135.844 23.1631 135.771 23.2012V23.1983Z" fill="#180F2E"/>
<path d="M141.344 22.3484C141.189 22.3689 141.259 22.5272 141.203 22.7909C141.148 23.0546 140.866 22.9315 140.696 22.87C140.43 22.7733 140.169 22.6649 139.896 22.5858C139.521 22.4773 139.135 22.4041 138.745 22.3894C138.39 22.3631 138.033 22.3982 137.687 22.4627C137.312 22.5301 136.949 22.6444 136.6 22.7938C136.535 22.8231 136.471 22.8495 136.407 22.8788C136.33 22.9139 136.298 23.0048 136.336 23.078L136.852 24.1387C136.887 24.212 136.972 24.2442 137.045 24.2091C137.204 24.1387 137.464 24.0245 137.625 23.9688C137.743 23.9278 137.86 23.8926 137.98 23.8574C138.349 23.749 138.727 23.6758 139.114 23.6347C139.495 23.5967 139.879 23.6054 140.263 23.6347C140.365 23.6435 140.468 23.6523 140.57 23.664C140.723 23.6758 140.872 23.6875 141.024 23.6758C141.186 23.6611 141.4 23.626 141.505 23.4912C141.675 23.2831 141.628 22.9374 141.587 22.6883C141.561 22.533 141.552 22.3191 141.347 22.3455L141.344 22.3484Z" fill="#180F2E"/>
<path d="M150.489 17.5108C150.416 17.4551 150.322 17.4463 150.234 17.4551C150.128 17.4639 150.014 17.4785 149.915 17.5166C149.882 17.5283 149.85 17.5489 149.83 17.5782C149.8 17.6192 149.8 17.6631 149.812 17.7071C149.815 17.7247 149.821 17.7422 149.827 17.7628C149.847 17.8301 149.871 17.8975 149.891 17.9649C149.929 18.1114 149.982 18.255 150.029 18.3986C150.076 18.5422 150.12 18.6857 150.166 18.8323C150.199 18.9319 150.228 19.0696 150.36 19.0579C150.457 19.0491 150.556 19.0432 150.653 19.0403C150.688 19.0403 150.72 19.0403 150.755 19.0403C150.993 19.0374 150.949 18.8147 150.905 18.6271C150.861 18.4425 150.814 18.2579 150.755 18.0763C150.723 17.9737 150.688 17.8712 150.644 17.7715C150.606 17.6807 150.568 17.5782 150.486 17.5166L150.489 17.5108Z" fill="#180F2E"/>
<path d="M149.226 17.6867C149.144 17.7101 149.062 17.7336 148.98 17.757C148.892 17.7804 148.807 17.8068 148.722 17.8332C148.643 17.8566 148.599 17.9445 148.625 18.0236L149.015 19.1488C149.041 19.2221 149.117 19.2631 149.194 19.2426C149.349 19.2016 149.504 19.1693 149.662 19.14C149.75 19.1254 149.806 19.0345 149.78 18.9496L149.408 17.7834C149.384 17.7072 149.305 17.6632 149.226 17.6837V17.6867Z" fill="#180F2E"/>
<path d="M148.045 18.0588C147.981 18.0822 147.913 18.1086 147.849 18.135C147.494 18.2756 147.157 18.4544 146.847 18.6712C146.557 18.8704 146.278 19.099 146.044 19.3686C145.78 19.6528 145.557 19.9839 145.367 20.3238C145.229 20.5728 145.121 20.8307 145.004 21.0885C144.927 21.2526 144.816 21.5369 144.59 21.3904C144.365 21.2438 144.303 21.0798 144.177 21.1765C144.013 21.3024 144.16 21.4607 144.251 21.5896C144.397 21.7947 144.608 22.0731 144.878 22.0994C145.048 22.117 145.223 21.991 145.346 21.8885C145.461 21.7918 145.56 21.6775 145.66 21.5603C145.724 21.4812 145.789 21.3991 145.859 21.323C146.108 21.0299 146.375 20.7545 146.671 20.5084C146.97 20.2652 147.292 20.0483 147.629 19.8638C147.737 19.8022 147.849 19.7465 147.957 19.6938C148.112 19.6205 148.376 19.5151 148.537 19.4535C148.614 19.4242 148.652 19.3422 148.625 19.266L148.238 18.1526C148.212 18.0734 148.124 18.0324 148.045 18.0617V18.0588Z" fill="#180F2E"/>
<path d="M155.198 25.9114C154.905 25.3927 154.386 25.0265 153.782 25.0089C153.205 24.9942 152.651 25.2638 152.2 25.6066C151.84 25.8791 151.535 26.2102 151.189 26.4974C150.832 26.7933 150.477 27.0922 150.111 27.3735C149.493 27.8452 148.857 28.276 148.174 28.651C148.001 28.7477 146.053 29.7059 146.038 29.6736C146.053 29.7059 143.996 30.4062 143.805 30.4619C143.058 30.6787 142.302 30.8252 141.531 30.9277C141.071 30.9893 140.611 31.0274 140.148 31.0713C139.703 31.1153 139.252 31.0948 138.803 31.1563C138.244 31.2325 137.661 31.4317 137.262 31.8507C136.846 32.2903 136.738 32.9144 136.899 33.4887C137.163 34.4351 137.913 35.1325 138.718 35.6394C139.384 36.0584 140.104 36.3544 140.878 36.5126C141.496 36.6386 142.126 36.7118 142.756 36.7118C144.248 36.7177 145.842 36.539 147.254 36.0408C147.535 35.9412 147.819 35.8474 148.104 35.7478C148.236 35.7009 148.362 35.6423 148.488 35.5896C148.616 35.5368 148.745 35.49 148.871 35.4314C149.141 35.3024 149.411 35.1676 149.68 35.0387C151.031 34.3912 152.285 33.3949 153.337 32.3342C153.782 31.8859 154.175 31.3907 154.524 30.8633C154.957 30.2069 155.259 29.4861 155.432 28.7184C155.643 27.7896 155.681 26.767 155.198 25.9114ZM154.348 28.7917C154.134 29.0847 153.806 29.2957 153.498 29.4832C153.24 29.6561 152.941 29.7791 152.669 29.9315C152.601 29.9696 152.572 30.0487 152.681 30.037C152.73 30.0311 152.78 30.0165 152.827 29.9989C152.921 29.9667 153.015 29.9315 153.108 29.8963C153.305 29.8231 153.504 29.7557 153.703 29.6942C153.797 29.6649 153.891 29.6385 153.984 29.6121C154.11 29.574 154.333 29.4744 154.401 29.6531C154.424 29.7205 154.412 29.7938 154.392 29.8612C154.327 30.0692 154.193 30.248 154.075 30.4267C154.037 30.5205 153.952 30.6142 153.894 30.6992C153.829 30.7959 153.765 30.8897 153.697 30.9834C153.357 31.4581 152.965 31.8888 152.552 32.302C151.526 33.3334 150.287 34.1509 148.977 34.7721C148.745 34.8805 148.514 34.983 148.279 35.0797C148.045 35.1794 147.811 35.2702 147.57 35.3552C146.205 35.8445 144.749 36.1405 143.295 36.1375C142.712 36.1375 142.129 36.1082 141.555 36.0145C141.441 35.9969 141.329 35.9764 141.215 35.9529C141.115 35.9324 140.986 35.9266 140.893 35.8885C140.682 35.8445 140.459 35.8152 140.269 35.7127C140.207 35.6804 140.145 35.6365 140.116 35.572C140.034 35.3991 140.263 35.3112 140.38 35.2497C140.468 35.2028 140.55 35.1559 140.638 35.109C140.822 35.0124 141.013 34.9186 141.203 34.8307C141.294 34.7897 141.385 34.7457 141.476 34.7018C141.523 34.6783 141.567 34.6578 141.608 34.6256C141.69 34.5582 141.613 34.523 141.54 34.5435C141.238 34.6285 140.942 34.7516 140.638 34.8131C140.289 34.8981 139.908 34.9801 139.548 34.9244C138.745 34.8014 138.042 34.1948 137.76 33.4389C137.658 33.1664 137.646 32.8675 137.831 32.6331C137.839 32.6243 137.845 32.6126 137.854 32.6038C137.995 32.4456 138.191 32.3518 138.396 32.299C138.85 32.1848 139.343 32.2111 139.785 32.3459C139.855 32.3664 139.929 32.3928 139.999 32.384C140.104 32.3723 140.137 32.2932 140.192 32.2199C140.271 32.1144 140.374 32.0236 140.479 31.9445C141.065 31.5108 141.801 31.5138 142.419 31.8742C142.618 31.9914 142.797 31.9767 142.973 31.839C143.401 31.4991 143.905 31.2618 144.429 31.1123C144.728 31.0274 145.033 30.9512 145.343 30.9365C145.701 30.9219 146.044 31.0391 146.387 31.127C146.46 31.1475 146.551 31.1299 146.63 31.0889C146.718 31.0596 146.791 31.0098 146.829 30.9424C147.011 30.6406 147.169 30.3124 147.433 30.0692C147.661 29.8582 147.934 29.6971 148.203 29.5476C148.681 29.2839 149.202 29.0935 149.747 29.0319C149.97 29.0026 150.105 28.8884 150.164 28.6657C150.345 27.9742 150.861 27.4497 151.585 27.3442C151.714 27.3237 151.854 27.3149 151.983 27.3354C152.074 27.35 152.153 27.3823 152.235 27.3149C152.291 27.268 152.326 27.2006 152.361 27.1361C152.581 26.7259 152.912 26.3597 153.311 26.1223C153.489 26.0139 153.697 25.9436 153.908 25.9553C153.92 25.9553 153.932 25.9553 153.946 25.9582C154.245 25.9934 154.447 26.2132 154.568 26.4769C154.902 27.2123 154.831 28.1383 154.354 28.7917H154.348Z" fill="#180F2E"/>
<path d="M150.6 30.4531C150.562 30.4473 150.53 30.4824 150.506 30.5059C150.052 31.0069 149.469 31.3527 148.907 31.716C148.757 31.8127 148.611 31.9123 148.479 32.0295C148.186 32.2845 147.846 32.4808 147.582 32.7709C147.524 32.8353 147.453 32.8822 147.38 32.9115C147.307 32.9437 147.225 32.9613 147.14 32.9555C146.747 32.9379 146.369 33.0375 145.982 33.0668C145.806 33.0785 145.631 33.1108 145.458 33.1488C144.804 33.2895 144.148 33.4565 143.471 33.4243C143.439 33.4243 143.389 33.4243 143.366 33.4507C143.345 33.477 143.36 33.518 143.386 33.5415C143.5 33.644 143.665 33.6675 143.811 33.6763C143.996 33.6909 144.177 33.6997 144.362 33.6851C144.699 33.6558 145.036 33.5649 145.373 33.5561C145.774 33.5415 146.179 33.5913 146.583 33.603C146.814 33.6089 147.058 33.6294 147.28 33.5825C147.4 33.5591 147.509 33.5239 147.617 33.477C147.726 33.4331 147.828 33.3803 147.928 33.3129C148.118 33.1869 148.274 33.0023 148.435 32.8324C148.713 32.5394 148.965 32.2171 149.258 31.9446C149.504 31.7131 149.806 31.5402 150.064 31.3204C150.205 31.2003 150.328 31.0655 150.448 30.9249C150.545 30.8165 150.644 30.6817 150.653 30.5293C150.653 30.4941 150.635 30.4561 150.603 30.4502L150.6 30.4531Z" fill="#180F2E"/>
<path d="M146.228 24.4846C145.973 23.9777 145.721 23.4297 145.329 23.0137C145.053 22.7207 144.719 22.5917 144.312 22.6591C143.946 22.7177 143.597 22.832 143.263 22.9756C142.926 23.1133 142.598 23.2774 142.299 23.4942C141.965 23.7345 141.821 24.0627 141.833 24.4641C141.848 25.0355 142.059 25.601 142.238 26.1401C142.425 26.7144 142.642 27.2799 142.882 27.8337C143.096 28.3289 143.372 28.871 143.89 29.0996C144.432 29.3398 145.059 29.1406 145.595 28.9823C145.642 28.9677 145.689 28.9501 145.733 28.9325C145.777 28.915 145.821 28.8944 145.865 28.871C146.354 28.6044 146.94 28.2996 147.154 27.7488C147.359 27.2184 147.169 26.6412 146.973 26.1401C146.75 25.5775 146.504 25.0267 146.231 24.4875L146.228 24.4846ZM146.562 26.6089C146.633 26.7935 146.703 26.9899 146.668 27.1891C146.621 27.4411 146.419 27.6257 146.225 27.7693C145.994 27.9422 145.742 28.0916 145.478 28.2029C145.467 28.2088 145.452 28.2147 145.437 28.2176C145.426 28.2234 145.411 28.2293 145.399 28.2352C145.133 28.3465 144.848 28.4168 144.564 28.4579C144.324 28.493 144.048 28.5047 143.84 28.3612C143.673 28.2469 143.582 28.0564 143.503 27.8777C143.413 27.6726 143.322 27.4704 143.237 27.2653C143.046 26.8141 142.865 26.3452 142.709 25.8764C142.651 25.6977 142.589 25.5131 142.536 25.3285C142.454 25.0442 142.393 24.7512 142.384 24.4582C142.378 24.2355 142.504 24.0568 142.68 23.9308C142.929 23.7491 143.19 23.5909 143.477 23.4825C143.758 23.3565 144.054 23.2832 144.359 23.2334C144.573 23.1983 144.79 23.2364 144.942 23.3975C145.144 23.6114 145.305 23.8605 145.452 24.1183C145.546 24.2853 145.631 24.4582 145.716 24.6282C145.938 25.0706 146.138 25.5307 146.322 25.9848C146.407 26.1899 146.486 26.398 146.565 26.606L146.562 26.6089Z" fill="#180F2E"/>
<path d="M140.09 25.0791C140.09 25.0791 140.099 25.0967 140.099 25.1084C140.099 25.1289 140.09 25.1465 140.081 25.1641C140.022 25.2813 139.961 25.3956 139.943 25.5274C139.92 25.7325 139.984 25.9406 140.119 26.0959C140.289 26.2951 140.564 26.4152 140.822 26.3537C140.931 26.3273 141.036 26.2717 141.109 26.1867C141.13 26.1633 141.15 26.1369 141.174 26.1164C141.244 26.0636 141.309 26.1193 141.344 26.1808C141.402 26.2805 141.449 26.3859 141.499 26.4885C141.707 26.9222 141.892 27.3675 142.05 27.8217C142.117 28.0151 142.199 28.2495 142.179 28.4576C142.164 28.6392 142.065 28.8033 141.924 28.9147C141.745 29.0553 141.508 29.1373 141.279 29.1286C141.051 29.1198 140.875 29.0201 140.737 28.8502C140.617 28.7008 140.541 28.5191 140.468 28.3403C140.356 28.0708 140.245 27.8012 140.137 27.5316C140.028 27.2621 139.934 26.9983 139.826 26.7346C139.82 26.7171 139.814 26.6995 139.806 26.6848C139.732 26.5002 139.659 26.3127 139.615 26.1164C139.571 25.9259 139.562 25.7237 139.603 25.5303C139.627 25.4219 139.668 25.3194 139.735 25.2315C139.767 25.1875 139.808 25.1494 139.852 25.1172C139.899 25.085 139.958 25.0439 140.017 25.041C140.043 25.041 140.069 25.0498 140.084 25.0674L140.09 25.0791Z" fill="#180F2E"/>
<path d="M147.102 22.1724C147.102 22.1724 147.11 22.1899 147.11 22.2017C147.11 22.2222 147.102 22.2398 147.093 22.2573C147.034 22.3745 146.973 22.4888 146.955 22.6207C146.932 22.8258 146.996 23.0338 147.131 23.1891C147.301 23.3884 147.576 23.5085 147.834 23.447C147.943 23.4206 148.048 23.3649 148.121 23.28C148.142 23.2565 148.162 23.2301 148.186 23.2096C148.256 23.1569 148.32 23.2126 148.356 23.2741C148.414 23.3737 148.461 23.4792 148.511 23.5818C148.719 24.0154 148.904 24.4608 149.062 24.915C149.129 25.1084 149.211 25.3428 149.191 25.5508C149.176 25.7325 149.076 25.8966 148.936 26.0079C148.757 26.1486 148.52 26.2306 148.291 26.2218C148.063 26.213 147.887 26.1134 147.749 25.9435C147.629 25.794 147.553 25.6123 147.48 25.4336C147.368 25.164 147.257 24.8945 147.148 24.6249C147.04 24.3553 146.946 24.0916 146.838 23.8279C146.832 23.8103 146.826 23.7927 146.817 23.7781C146.744 23.5935 146.671 23.406 146.627 23.2096C146.583 23.0192 146.574 22.817 146.615 22.6236C146.639 22.5152 146.68 22.4126 146.747 22.3247C146.779 22.2808 146.82 22.2427 146.864 22.2105C146.911 22.1782 146.97 22.1372 147.028 22.1343C147.055 22.1343 147.081 22.1431 147.096 22.1606L147.102 22.1724Z" fill="#180F2E"/>
<path d="M155.713 10.5165C155.646 10.0037 155.441 9.5173 155.183 9.07485C154.919 8.62654 154.591 8.53277 154.108 8.45659C153.8 8.40971 153.492 8.35989 153.185 8.31301C152.991 8.28371 152.795 8.28078 152.604 8.25148C152.514 8.23683 152.431 8.2046 152.344 8.18116C152.25 8.15478 152.159 8.16358 152.08 8.09325C151.942 7.97605 151.954 7.74164 151.925 7.57755C151.892 7.38123 151.851 7.18491 151.799 6.99152C151.734 6.74832 151.649 6.44652 151.45 6.27657C151.201 6.06267 150.858 6.15936 150.588 6.26778C150.21 6.42307 149.844 6.59888 149.466 6.75418C148.373 7.20249 147.263 7.60685 146.152 8.00828C145.871 8.11083 145.59 8.21046 145.305 8.29836C145.2 8.33059 145.091 8.35989 144.983 8.38627C144.904 8.40385 144.552 8.48296 144.558 8.32766C144.558 8.30129 144.573 8.28078 144.588 8.26027C144.705 8.09911 144.845 7.95554 144.968 7.79731C145.162 7.54825 145.314 7.2523 145.326 6.92706C145.341 6.51391 145.033 6.10369 144.796 5.7931C144.705 5.67589 144.614 5.55869 144.517 5.44441C143.969 4.79392 143.328 4.26064 142.566 3.8973C142.381 3.80939 142.194 3.7127 141.991 3.68633C141.769 3.65996 141.575 3.74786 141.397 3.87386C141.104 4.07897 140.857 4.33975 140.6 4.58588C140.345 4.82908 140.087 5.06935 139.841 5.32427C139.442 5.79017 139.017 6.23262 138.628 6.71023C138.27 7.14975 137.924 7.60099 137.596 8.06395C137.277 8.50933 136.987 8.97815 136.65 9.40595C136.395 9.7312 136.116 10.0359 135.882 10.3788C135.604 10.786 135.375 11.2256 135.229 11.7002C135.214 11.7501 135.188 11.8673 135.123 11.8761C135.038 11.8878 134.988 11.7061 134.968 11.6446C134.88 11.3867 134.78 11.1347 134.678 10.8857C134.525 10.5194 134.367 10.1561 134.194 9.79859C134.021 9.44404 133.834 9.09536 133.629 8.76132C133.476 8.51226 133.298 8.28664 133.081 8.09032C132.556 7.6215 131.701 8.12255 131.247 8.47417C130.725 8.87853 130.177 9.51144 130.025 10.1766C129.946 10.5253 129.993 10.8505 130.177 11.1582C130.203 11.1992 130.227 11.2431 130.247 11.29C130.561 11.9434 130.992 12.5353 131.428 13.1096C131.61 13.3499 131.803 13.5785 131.997 13.8099C132.096 13.9301 132.208 14.0414 132.313 14.1586C132.407 14.2641 132.548 14.3901 132.574 14.5366C132.58 14.563 132.58 14.5923 132.568 14.6187C132.521 14.7271 132.36 14.6538 132.287 14.6187C132.058 14.5015 131.83 14.3842 131.601 14.267C131.387 14.1586 131.179 14.0356 130.945 13.977C130.561 13.8803 130.157 13.9535 129.784 14.0766C129.116 14.2963 128.463 14.5659 127.807 14.8179C127.314 15.0054 126.848 15.1783 126.429 15.5094C126.002 15.8464 125.632 16.2537 125.225 16.6141C125.184 16.6492 125.143 16.6873 125.105 16.7254C124.197 17.6103 124.774 19.3332 125.673 20.0336C125.805 20.1361 125.967 20.2006 126.113 20.2855C126.848 20.7192 127.61 20.1215 128.164 19.6556C128.536 19.342 128.879 18.9934 129.234 18.6622C129.389 18.5187 129.538 18.3663 129.702 18.2286C129.814 18.1348 129.91 18.0059 130.048 17.9502C130.247 17.8711 130.259 18.044 130.203 18.1905C129.995 18.7502 129.673 19.3069 129.248 19.7288C128.905 20.0687 128.557 20.4027 128.214 20.7426C127.81 21.147 127.344 21.5133 127.004 21.9792C126.784 22.281 126.74 22.6091 126.91 22.952C126.983 23.1014 127.083 23.2333 127.18 23.3651C127.259 23.4735 127.376 23.5937 127.379 23.7402C127.379 23.8632 127.303 23.9892 127.262 24.1035C127.106 24.5547 127.282 25.047 127.499 25.4514C127.707 25.8381 128.009 26.1517 128.387 26.3773C128.571 26.4886 128.771 26.5765 128.979 26.6351C129.081 26.6644 129.187 26.685 129.292 26.6967C129.339 26.7025 129.386 26.7084 129.433 26.7113C129.433 26.7113 129.439 26.7113 129.442 26.7113C129.521 26.7348 129.609 26.7992 129.629 26.9487C129.635 26.9809 129.641 27.0161 129.647 27.0483C129.661 27.1508 129.67 27.2563 129.682 27.3618C129.702 27.5493 129.708 27.7369 129.735 27.9244C129.758 28.0914 129.828 28.2526 130.013 28.276C130.265 28.3083 130.526 28.32 130.778 28.2848C131.059 28.2438 131.332 28.15 131.601 28.0651C131.636 28.0533 131.674 28.0416 131.698 28.0123C131.721 27.9859 131.727 27.9478 131.733 27.9127C131.783 27.5552 131.754 27.186 131.774 26.8256C131.806 26.3158 131.882 25.8059 132.082 25.3371C132.296 24.8331 132.58 24.376 132.671 23.8251C132.735 23.4384 132.741 23.0281 132.72 22.6355C132.703 22.2868 132.583 21.9206 132.715 21.5836C132.77 21.4429 132.867 21.3257 132.961 21.2056C133.535 20.4848 134.033 19.7054 134.52 18.923C134.944 18.2374 135.308 17.5078 135.996 17.0595C136.691 16.6082 137.502 16.368 138.32 16.2654C139.331 16.1394 140.348 16.2302 141.364 16.283C141.376 16.283 141.388 16.283 141.4 16.283C143.77 16.406 146.14 16.5115 148.508 16.6932C148.892 16.7225 149.276 16.743 149.66 16.7694C149.979 16.7899 150.29 16.7752 150.55 16.5701C150.676 16.4705 150.761 16.3328 150.855 16.2009C150.922 16.1072 151.046 15.9109 151.18 15.9402C151.224 15.9489 151.259 15.9724 151.298 15.9988C151.5 16.1423 151.693 16.2742 151.922 16.3767C152.27 16.532 152.634 16.6463 152.988 16.7899C153.732 17.0946 154.295 17.7334 154.875 18.2725C155.063 18.4483 155.385 18.1876 155.552 18.0879C155.83 17.9209 156.088 17.7158 156.302 17.4726C156.384 17.3788 156.466 17.2411 156.443 17.1093C156.416 16.9716 156.288 16.8485 156.205 16.7401C156.129 16.6405 156.053 16.5379 155.98 16.4383C155.918 16.3562 155.819 16.2595 155.778 16.1658C155.772 16.157 155.766 16.1482 155.763 16.1394C155.754 16.0984 155.825 16.0193 155.845 15.987C155.886 15.9255 155.93 15.8669 155.974 15.8112C156.062 15.6969 156.15 15.5856 156.223 15.4625C156.49 15.0142 156.707 14.5454 156.806 14.0238C156.812 13.9858 156.818 13.9506 156.824 13.9125C156.871 13.4583 156.607 13.0979 156.299 12.7961C156.118 12.6174 155.933 12.4445 155.702 12.3361C155.666 12.3185 155.628 12.3039 155.596 12.2775C155.576 12.2599 155.564 12.2423 155.555 12.2218C155.543 12.1896 155.543 12.1544 155.552 12.1163C155.663 11.5977 155.789 11.0673 155.716 10.5311L155.713 10.5165Z" fill="#180F2E"/>
<path d="M13.546 20.0717L5.12483 19.9457L4.61792 12.5734L31.5576 11.2754L32.2843 20.3705L23.0807 20.227L23.6609 39.7387L13.0508 40.5299L13.546 20.0717Z" fill="#FEFFF3"/>
<path d="M25.2138 39.6215L34.3675 11.4336L47.603 11.835L55.2565 39.1556L43.8348 40.2778L43.1345 35.7068H37.0926L35.9791 40.4097L25.2167 39.6215H25.2138ZM36.4567 30.3359H43.3513L40.9281 18.7853H39.7883L36.4567 30.3359Z" fill="#FEFFF3"/>
<path d="M63.9854 30.6202L63.2206 30.8517L63.5517 40.0552L53.809 41.8484L54.4595 12.2043L64.2286 11.8087L64.6447 23.8398H65.5911L71.1378 11.0615L80.1128 15.4128L72.9575 25.8968L81.6834 34.4381L73.8365 43.0205L63.9854 30.6202Z" fill="#FEFFF3"/>
<path d="M79.7524 39.9321L80.567 12.2013L101.016 11.2725L101.327 19.1106L89.9669 18.8615L89.8233 22.656L98.6665 22.1169L99.0825 27.9332L89.6768 28.0563L89.5332 32.1819L101.11 31.0626L101.813 40.4185L79.7524 39.9321Z" fill="#FEFFF3"/>
<path d="M154.887 45.4434C156.519 45.4434 157.609 46.5011 157.609 48.0863C157.609 49.6715 156.519 50.7293 154.887 50.7293C153.255 50.7293 152.165 49.6715 152.165 48.0863C152.165 46.5011 153.255 45.4434 154.887 45.4434ZM154.887 50.1579C156.167 50.1579 156.929 49.3287 156.929 48.0863C156.929 46.844 156.167 46.0147 154.887 46.0147C153.606 46.0147 152.845 46.844 152.845 48.0863C152.845 49.3287 153.606 50.1579 154.887 50.1579ZM153.501 46.7531C153.841 46.6506 154.591 46.5597 154.992 46.5656C155.772 46.5715 156.373 46.9084 156.373 47.4593C156.373 47.8607 156.006 48.1684 155.661 48.2709V48.2827L156.463 48.9068L155.573 49.6803L154.582 48.4497L154.559 48.4555L154.82 49.4635L153.606 49.4811L153.501 46.7502V46.7531ZM154.913 47.9105C155.174 47.9105 155.315 47.808 155.315 47.6029C155.315 47.3978 155.186 47.2835 154.937 47.2835C154.776 47.2835 154.67 47.3186 154.603 47.3626L154.62 47.9017C154.743 47.9076 154.793 47.9076 154.91 47.9076L154.913 47.9105Z" fill="#884DF7"/>
<path d="M76.1074 56.6452V45.7393H80.2945V53.5422H84.8011V56.6481H76.1074V56.6452Z" fill="#884DF7"/>
<path d="M86.9635 56.6452C86.0229 56.1354 85.434 55.1626 85.434 53.4309V45.7363H93.7292V48.6108H89.6211V49.7242H93.568V52.3496H89.6211V53.0294C89.6211 53.4455 89.7325 53.6477 89.9727 53.7708H93.9694V56.6452H86.9635Z" fill="#884DF7"/>
<path d="M100.243 59.9651L100.052 57.5858C101.263 57.5858 102.027 57.2752 101.978 56.6277C101.834 56.6423 101.579 56.6423 101.421 56.6423C97.7582 56.6423 94.7518 54.8491 94.7518 51.3124C94.7518 47.3421 97.8724 45.4404 101.963 45.4404C103.331 45.4404 104.703 45.5635 105.798 45.8126L105.083 48.7163C104.383 48.4526 103.443 48.3002 102.569 48.3002C100.134 48.3002 99.0181 49.5836 99.0181 51.4355C99.0181 53.2873 100.164 54.0785 101.485 54.0785C101.611 54.0785 101.805 54.0638 101.898 54.0316V50.6942H105.957V56.3317C105.957 58.6641 104.014 59.9622 100.243 59.9622V59.9651Z" fill="#884DF7"/>
<path d="M108.6 56.6452C107.659 56.1354 107.07 55.1626 107.07 53.4309V45.7363H115.365V48.6108H111.257V49.7242H115.204V52.3496H111.257V53.0294C111.257 53.4455 111.369 53.6477 111.609 53.7708H115.606V56.6452H108.6Z" fill="#884DF7"/>
<path d="M124.17 56.6452L121.847 53.51C121.226 52.6749 120.766 51.9043 120.669 51.6552H120.637V56.6452H116.863V45.7393H121.208L123.42 48.7368C124.009 49.5396 124.534 50.404 124.598 50.6677H124.63V45.7393H128.404V56.6452H124.17Z" fill="#884DF7"/>
<path d="M134.868 56.6452H129.679V45.7393H134.98C137.13 45.7393 141.731 45.8154 141.731 50.9461C141.731 55.7193 138.308 56.6481 134.868 56.6481V56.6452ZM134.487 48.4086H133.866V53.97H134.566C136.333 53.97 137.479 53.3371 137.479 51.1131C137.479 48.7339 135.744 48.4086 134.487 48.4086Z" fill="#884DF7"/>
<path d="M145.552 56.906C144.309 56.906 143.005 56.783 141.971 56.5046L142.56 53.554C143.131 53.8001 143.928 54.0169 144.851 54.0169C145.472 54.0169 146.205 53.9085 146.205 53.2903C146.205 52.9181 145.871 52.7482 145.49 52.6105L144.901 52.3936C143.58 51.9131 142.068 51.204 142.068 49.3668C142.068 46.7414 144.248 45.4434 147.002 45.4434C148.133 45.4434 149.422 45.5811 150.457 45.8301L149.885 48.6724C149.361 48.4087 148.499 48.2094 147.655 48.2094C146.812 48.2094 146.636 48.5347 146.636 48.7808C146.636 49.0445 146.826 49.2144 147.272 49.3668L147.907 49.5983C149.293 50.1081 150.805 50.8495 150.805 52.7804C150.805 55.5758 148.482 56.906 145.552 56.906Z" fill="#884DF7"/>
</g>
<defs>
<clipPath id="clip0_1503_89">
<rect width="226.91" height="64" fill="white"/>
</clipPath>
</defs>
</svg>
