<svg width="1044" height="132" viewBox="0 0 1044 132" fill="none" xmlns="http://www.w3.org/2000/svg">
<path d="M100.395 3.5778C101.743 3.01958 103.257 3.01958 104.605 3.5778L120.049 9.97484C121.396 10.5331 122.467 11.6038 123.025 12.9514L129.422 28.3952C129.98 29.7429 129.98 31.2571 129.422 32.6048L123.025 48.0486C122.467 49.3962 121.396 50.4669 120.049 51.0252L104.605 57.4222C103.257 57.9804 101.743 57.9804 100.395 57.4222L84.9514 51.0252C83.6038 50.4669 82.5331 49.3962 81.9748 48.0486L75.5778 32.6048C75.0196 31.2571 75.0196 29.7429 75.5778 28.3952L81.9748 12.9514C82.5331 11.6038 83.6038 10.5331 84.9514 9.97484L100.395 3.5778Z" fill="#611FB8" stroke="#C7B4FE" stroke-width="5"/>
<path d="M29.177 86.856L28.577 71.112C30.569 70.512 34.217 69.96 36.569 69.984C41.105 70.032 43.913 72.072 43.913 75.384C43.913 77.808 42.497 79.632 40.457 80.256V80.352L44.825 83.736L40.337 88.416L34.193 81.36L34.049 81.384L35.177 87.096L29.177 86.856ZM34.385 78.048C35.105 78.096 35.393 78.096 36.113 78.096C37.601 78.096 38.465 77.472 38.465 76.248C38.465 75.024 37.673 74.328 36.257 74.328C35.297 74.328 34.697 74.544 34.289 74.808L34.385 78.048ZM43.9811 86.88L43.7411 72.768L55.1651 72.456L55.3571 76.896L49.4291 76.584L49.4531 78.216L53.7491 77.904L53.6051 80.904L49.5011 80.976L49.5251 82.584L55.9331 81.912L55.4051 87.168L43.9811 86.88ZM55.2114 80.4C55.2114 75.384 58.5474 72.36 63.4194 72.36C66.3474 72.36 68.0754 72.888 69.5394 73.656L67.6674 78.24C66.8034 77.688 65.3394 77.208 63.8754 77.208C61.9314 77.208 60.7794 78.312 60.7794 80.184C60.7794 81.624 61.4274 82.416 62.6274 82.416C63.8274 82.416 64.2594 81.12 63.8514 79.608L69.7314 79.128L70.5234 87.192L64.6434 86.952L64.7634 85.488L64.6434 85.464C64.1754 86.472 62.6874 87.108 60.9954 87.108C57.0714 87.108 55.2114 84.084 55.2114 80.4ZM70.797 75.384L71.037 71.688L76.413 71.256L76.725 75.24L70.797 75.384ZM70.533 86.76L71.013 76.68L76.581 76.32L76.989 87.24L70.533 86.76ZM77.1825 77.256C77.1825 74.52 80.2785 72.48 84.4785 72.48C86.3265 72.48 88.4625 72.96 89.7825 73.656L88.1745 77.64C87.2865 77.256 86.1345 77.016 85.1745 77.04C83.5665 77.088 83.0385 77.376 83.2065 78.048C83.5665 79.44 90.4065 77.016 90.4065 82.392C90.4065 85.344 87.6705 87.12 83.1585 87.12C80.8545 87.12 77.8785 86.544 76.7505 85.896L78.4305 81.36C79.0545 81.768 80.9985 83.16 82.7745 83.28C84.3105 83.4 84.4785 82.368 84.2385 81.984C83.4705 80.808 77.1825 82.416 77.1825 77.256ZM99.1608 86.76L93.1848 87.24L93.4728 77.616L88.9848 77.688L89.4168 72.456L102.953 73.008L103.361 77.448L98.8248 77.52L99.1608 86.76ZM114.247 82.08V82.176L117.919 85.32L113.383 88.992L108.895 83.256L108.751 83.28L108.823 87.24L103.183 87L102.991 73.512C104.983 72.912 107.623 72.36 109.975 72.384C113.935 72.432 116.599 74.544 116.599 77.64C116.599 79.584 115.687 81.288 114.247 82.08ZM108.031 80.088C108.583 80.136 108.799 80.136 109.351 80.136C110.479 80.136 111.151 79.56 111.151 78.408C111.151 77.256 110.551 76.608 109.447 76.608C108.703 76.608 108.247 76.8 107.935 77.064L108.031 80.088ZM115.763 86.688L120.563 72.504L127.475 72.696L131.555 86.448L125.195 87.096L124.787 84.432H122.435L122.075 87.168L115.763 86.688ZM122.603 81.504H125.195L123.995 76.536H123.563L122.603 81.504ZM138.864 86.76L132.888 87.24L133.176 77.616L128.688 77.688L129.12 72.456L142.656 73.008L143.064 77.448L138.528 77.52L138.864 86.76ZM143.078 75.384L143.318 71.688L148.694 71.256L149.006 75.24L143.078 75.384ZM142.814 86.76L143.294 76.68L148.862 76.32L149.27 87.24L142.814 86.76ZM149.032 79.728C149.032 75.288 152.056 72.36 156.328 72.36C160.576 72.36 163.648 75.288 163.648 79.728C163.648 84.168 160.576 87.096 156.328 87.096C152.056 87.096 149.032 84.168 149.032 79.728ZM153.28 79.92C153.28 81.6 154.408 82.776 156.04 82.776C157.624 82.776 158.776 81.6 158.776 79.92C158.776 78.216 157.624 77.088 156.04 77.088C154.408 77.088 153.28 78.216 153.28 79.92ZM162.696 86.784L164.016 73.008L169.224 72.504L171.84 79.104L172.224 78.936L171.36 72.672L177.312 72.744L177 86.664L171.792 87.168L168.048 79.752L167.712 79.824L169.152 87.24L162.696 86.784Z" fill="#C7B4FE"/>
<path d="M10.0422 108H7.01819L4.76219 104.16C4.39419 103.536 4.04219 103.488 3.78619 103.488H3.05019V108H0.554188V96.704H4.21819C6.76219 96.704 9.08219 97.28 9.08219 99.952C9.08219 101.84 7.61019 102.688 6.61819 102.848C7.08219 103.664 9.00219 106.528 10.0422 108ZM6.49019 100.096C6.49019 98.8 5.25819 98.64 4.26619 98.64H3.05019V101.632H4.41019C5.37019 101.632 6.49019 101.344 6.49019 100.096ZM17.9948 103.184C17.9948 103.456 17.9788 103.824 17.9468 104.112H12.6508C12.6508 104.128 12.6508 104.144 12.6508 104.16C12.6508 105.68 13.7548 106.496 15.1948 106.496C15.9628 106.496 16.7788 106.176 17.2268 105.936L17.8188 107.6C17.1628 107.904 16.0268 108.272 14.7788 108.272C12.1068 108.272 10.4268 106.448 10.4268 103.792C10.4268 101.536 11.6428 99.184 14.3788 99.184C17.0188 99.184 17.9948 101.216 17.9948 103.184ZM15.8828 102.592C15.9628 101.696 15.4188 100.752 14.2828 100.752C13.0028 100.752 12.6028 101.84 12.6028 102.592H15.8828ZM26.9394 108.384C26.9394 110.544 24.7474 111.44 22.7474 111.44C21.3874 111.44 18.9714 110.992 18.9714 109.184C18.9714 108.208 19.6114 107.696 20.2194 107.456V107.424C19.8354 107.248 19.3714 106.768 19.3714 106.08C19.3714 105.184 19.8674 104.56 20.2994 104.256C19.7234 103.712 19.4514 102.976 19.4514 102.16C19.4514 100.592 20.5554 99.184 22.7954 99.184C23.4514 99.184 24.1554 99.36 24.6034 99.616H26.9554V101.216H25.9314C25.9954 101.408 26.0914 101.808 26.0914 102.144C26.0914 103.712 24.9714 105.072 22.7314 105.072C22.3154 105.072 21.9154 104.992 21.6274 104.912C21.3714 104.848 21.2914 104.816 21.0994 105.024C21.0354 105.088 20.9714 105.328 20.9714 105.488C20.9714 105.856 21.2434 106.144 21.7714 106.144H24.5074C25.9154 106.144 26.9394 106.912 26.9394 108.384ZM23.9794 102.144C23.9794 101.472 23.7234 100.56 22.7954 100.56C21.8674 100.56 21.5634 101.504 21.5634 102.16C21.5634 102.848 21.8194 103.712 22.7474 103.712C23.6754 103.712 23.9794 102.8 23.9794 102.144ZM24.7474 108.768C24.7474 108.144 24.3314 107.92 23.8354 107.92H21.4514C21.1474 107.92 20.8914 108.128 20.8914 108.752C20.8914 109.712 22.0594 109.984 22.7474 109.984C24.1874 109.984 24.7474 109.36 24.7474 108.768ZM30.8593 97.184C30.8593 97.872 30.3793 98.368 29.6113 98.368C28.8433 98.368 28.3473 97.872 28.3473 97.184C28.3473 96.496 28.8433 96 29.6113 96C30.3793 96 30.8593 96.496 30.8593 97.184ZM30.7153 108H28.4753V99.456H30.7153V108ZM38.7111 105.44C38.7111 107.104 37.3671 108.272 35.1271 108.272C34.0551 108.272 33.0951 107.904 32.6151 107.616L33.3031 105.968C33.8471 106.352 34.6311 106.608 35.3031 106.608C35.8951 106.608 36.6151 106.4 36.6151 105.728C36.6151 105.168 36.1511 104.992 35.3511 104.688L34.6471 104.416C33.5431 103.984 32.8071 103.328 32.8071 102.08C32.8071 100.464 34.1671 99.184 36.1671 99.184C37.2391 99.184 38.0231 99.52 38.4711 99.744L37.7831 101.392C37.2871 101.072 36.5991 100.88 36.0551 100.88C35.1431 100.88 34.8711 101.344 34.8711 101.728C34.8711 102.176 35.2871 102.432 35.8791 102.64L36.6311 102.912C37.8471 103.36 38.7111 104.016 38.7111 105.44ZM45.3203 108.048C44.9043 108.16 44.1203 108.272 43.3683 108.272C41.8483 108.272 40.9043 107.456 40.9043 105.808V101.216H39.4803V99.616H40.9043V97.888L43.1443 97.168V99.616H45.0963V101.216H43.1443V105.536C43.1443 106.384 43.6083 106.576 44.1203 106.576C44.5843 106.576 44.9043 106.464 45.0963 106.4L45.3203 108.048ZM53.7448 103.184C53.7448 103.456 53.7288 103.824 53.6968 104.112H48.4008C48.4008 104.128 48.4008 104.144 48.4008 104.16C48.4008 105.68 49.5048 106.496 50.9448 106.496C51.7128 106.496 52.5288 106.176 52.9768 105.936L53.5688 107.6C52.9128 107.904 51.7768 108.272 50.5288 108.272C47.8568 108.272 46.1768 106.448 46.1768 103.792C46.1768 101.536 47.3928 99.184 50.1288 99.184C52.7688 99.184 53.7448 101.216 53.7448 103.184ZM51.6328 102.592C51.7128 101.696 51.1688 100.752 50.0328 100.752C48.7528 100.752 48.3528 101.84 48.3528 102.592H51.6328ZM60.6198 99.408L60.0278 101.648C59.8678 101.568 59.5478 101.424 59.2438 101.424C58.7638 101.424 58.5078 101.568 58.2998 101.76C57.9958 102.032 57.9798 102.384 57.9798 102.848V108H55.7398V101.616C55.7398 100.88 55.6758 99.856 55.6598 99.456H57.6758V100.736C58.1878 99.92 58.7478 99.248 59.8038 99.248C60.1238 99.248 60.4438 99.344 60.6198 99.408ZM74.0716 103.744C74.0716 106.16 72.7116 108.304 69.9436 108.304C67.1436 108.304 65.8956 106.144 65.8956 103.712C65.8956 101.296 67.2556 99.152 70.0236 99.152C72.8236 99.152 74.0716 101.312 74.0716 103.744ZM71.7356 103.76C71.7356 102.56 71.4476 100.912 70.0236 100.912C68.5996 100.912 68.2316 102.496 68.2316 103.696C68.2316 104.896 68.5196 106.544 69.9436 106.544C71.3676 106.544 71.7356 104.96 71.7356 103.76ZM83.0812 108H80.8412V102.592C80.8412 101.728 80.5372 101.136 79.5612 101.136C79.1132 101.136 78.7132 101.328 78.4732 101.552C78.0412 101.968 78.0092 102.176 78.0092 102.752V108H75.7692V99.456H77.8492V100.672C78.4572 99.76 79.2572 99.184 80.4252 99.184C82.3292 99.184 83.0812 100.464 83.0812 102.128V108ZM94.6641 108.048C94.2481 108.16 93.4641 108.272 92.7121 108.272C91.1921 108.272 90.2481 107.456 90.2481 105.808V101.216H88.8241V99.616H90.2481V97.888L92.4881 97.168V99.616H94.4401V101.216H92.4881V105.536C92.4881 106.384 92.9521 106.576 93.4641 106.576C93.9281 106.576 94.2481 106.464 94.4401 106.4L94.6641 108.048ZM103.441 108H101.201V102.592C101.201 101.728 100.897 101.136 99.9206 101.136C99.4726 101.136 99.0726 101.328 98.8326 101.552C98.4006 101.968 98.3686 102.176 98.3686 102.752V108H96.1286V96.16H98.3686V100.464C98.9606 99.68 99.7286 99.184 100.785 99.184C102.689 99.184 103.441 100.464 103.441 102.128V108ZM112.651 103.184C112.651 103.456 112.635 103.824 112.603 104.112H107.307C107.307 104.128 107.307 104.144 107.307 104.16C107.307 105.68 108.411 106.496 109.851 106.496C110.619 106.496 111.435 106.176 111.883 105.936L112.475 107.6C111.819 107.904 110.683 108.272 109.435 108.272C106.763 108.272 105.083 106.448 105.083 103.792C105.083 101.536 106.299 99.184 109.035 99.184C111.675 99.184 112.651 101.216 112.651 103.184ZM110.539 102.592C110.619 101.696 110.075 100.752 108.939 100.752C107.659 100.752 107.259 101.84 107.259 102.592H110.539ZM129.626 99.456L127.802 108H125.482L124.282 103.136C124.154 102.64 124.026 101.776 124.01 101.552H123.978C123.946 101.888 123.77 102.736 123.658 103.136L122.378 108H120.106L118.346 99.456H120.666L121.322 104C121.434 104.816 121.546 105.504 121.562 105.712H121.594C121.642 105.376 121.722 104.688 121.882 104.032L122.97 99.456H125.274L126.346 104.192C126.506 104.864 126.618 105.52 126.65 105.792H126.682C126.714 105.456 126.762 104.88 126.874 104.192L127.626 99.456H129.626ZM138.026 103.184C138.026 103.456 138.01 103.824 137.978 104.112H132.682C132.682 104.128 132.682 104.144 132.682 104.16C132.682 105.68 133.786 106.496 135.226 106.496C135.994 106.496 136.81 106.176 137.258 105.936L137.85 107.6C137.194 107.904 136.058 108.272 134.81 108.272C132.138 108.272 130.458 106.448 130.458 103.792C130.458 101.536 131.674 99.184 134.41 99.184C137.05 99.184 138.026 101.216 138.026 103.184ZM135.914 102.592C135.994 101.696 135.45 100.752 134.314 100.752C133.034 100.752 132.634 101.84 132.634 102.592H135.914ZM147.685 103.632C147.685 105.552 146.677 108.272 143.941 108.272C143.301 108.272 142.549 108.016 142.117 107.616V108H139.941V96.16H142.197V100.576C142.773 99.744 143.429 99.184 144.517 99.184C146.757 99.184 147.685 101.568 147.685 103.632ZM145.349 103.968C145.349 102.816 145.077 101.136 143.653 101.136C143.205 101.136 142.853 101.328 142.613 101.568C142.229 101.936 142.181 102.176 142.181 102.672V105.568C142.181 106.16 142.533 106.688 143.557 106.688C144.997 106.688 145.349 105.136 145.349 103.968ZM154.899 105.44C154.899 107.104 153.555 108.272 151.315 108.272C150.243 108.272 149.283 107.904 148.803 107.616L149.491 105.968C150.035 106.352 150.819 106.608 151.491 106.608C152.083 106.608 152.803 106.4 152.803 105.728C152.803 105.168 152.339 104.992 151.539 104.688L150.835 104.416C149.731 103.984 148.995 103.328 148.995 102.08C148.995 100.464 150.355 99.184 152.355 99.184C153.427 99.184 154.211 99.52 154.659 99.744L153.971 101.392C153.475 101.072 152.787 100.88 152.243 100.88C151.331 100.88 151.059 101.344 151.059 101.728C151.059 102.176 151.475 102.432 152.067 102.64L152.819 102.912C154.035 103.36 154.899 104.016 154.899 105.44ZM159.172 97.184C159.172 97.872 158.692 98.368 157.924 98.368C157.156 98.368 156.66 97.872 156.66 97.184C156.66 96.496 157.156 96 157.924 96C158.692 96 159.172 96.496 159.172 97.184ZM159.028 108H156.788V99.456H159.028V108ZM166.352 108.048C165.936 108.16 165.152 108.272 164.4 108.272C162.88 108.272 161.936 107.456 161.936 105.808V101.216H160.512V99.616H161.936V97.888L164.176 97.168V99.616H166.128V101.216H164.176V105.536C164.176 106.384 164.64 106.576 165.152 106.576C165.616 106.576 165.936 106.464 166.128 106.4L166.352 108.048ZM174.776 103.184C174.776 103.456 174.76 103.824 174.728 104.112H169.432C169.432 104.128 169.432 104.144 169.432 104.16C169.432 105.68 170.536 106.496 171.976 106.496C172.744 106.496 173.56 106.176 174.008 105.936L174.6 107.6C173.944 107.904 172.808 108.272 171.56 108.272C168.888 108.272 167.208 106.448 167.208 103.792C167.208 101.536 168.424 99.184 171.16 99.184C173.8 99.184 174.776 101.216 174.776 103.184ZM172.664 102.592C172.744 101.696 172.2 100.752 171.064 100.752C169.784 100.752 169.384 101.84 169.384 102.592H172.664ZM188.311 107.952C187.975 108.032 187.415 108.16 186.887 108.16C186.087 108.16 185.687 107.664 185.559 106.992C184.855 107.824 184.199 108.24 183.031 108.24C181.527 108.24 180.503 107.152 180.503 105.696C180.503 103.376 182.935 102.928 184.823 102.928C185.175 102.928 185.383 102.912 185.383 102.624V102.064C185.383 101.456 184.999 100.88 183.815 100.88C182.823 100.88 182.071 101.344 181.703 101.664L180.919 100.064C181.863 99.456 182.903 99.184 184.375 99.184C185.575 99.184 187.511 99.616 187.511 102.08V106.016C187.511 106.32 187.543 106.576 187.815 106.576C187.911 106.576 188.087 106.528 188.183 106.496L188.311 107.952ZM185.367 105.12V104.32C185.127 104.304 184.887 104.304 184.695 104.304C183.911 104.304 182.727 104.496 182.727 105.52C182.727 106.144 183.175 106.592 183.799 106.592C184.295 106.592 184.711 106.432 184.999 106.128C185.255 105.856 185.367 105.536 185.367 105.12ZM197.159 108H194.919V102.592C194.919 101.728 194.615 101.136 193.639 101.136C193.191 101.136 192.791 101.328 192.551 101.552C192.119 101.968 192.087 102.176 192.087 102.752V108H189.847V99.456H191.927V100.672C192.535 99.76 193.335 99.184 194.503 99.184C196.407 99.184 197.159 100.464 197.159 102.128V108ZM206.546 108H204.466V106.768C203.874 107.648 203.25 108.272 202.082 108.272C199.682 108.272 198.802 105.632 198.802 103.632C198.802 101.632 199.81 99.184 202.546 99.184C203.202 99.184 203.874 99.392 204.29 99.792V96.16H206.546V108ZM204.306 104.8V101.904C204.306 101.264 203.938 100.8 202.85 100.8C201.474 100.8 201.138 102.128 201.138 103.344C201.138 104.496 201.394 106.336 202.882 106.336C203.33 106.336 203.682 106.112 203.906 105.904C204.258 105.552 204.306 105.248 204.306 104.8ZM35.0687 127.568C34.6207 127.904 33.5167 128.272 32.4767 128.272C29.8527 128.272 28.3487 126.336 28.3487 123.84C28.3487 121.504 29.5807 119.184 32.4767 119.184C33.6287 119.184 34.5247 119.488 35.0847 119.792L34.2847 121.664C33.9967 121.472 33.3567 121.088 32.6207 121.088C31.3247 121.088 30.6847 122.288 30.6847 123.792C30.6847 125.44 31.7407 126.416 32.7487 126.416C33.3887 126.416 34.0447 126.144 34.4287 125.904L35.0687 127.568ZM41.7292 119.408L41.1372 121.648C40.9772 121.568 40.6572 121.424 40.3532 121.424C39.8732 121.424 39.6172 121.568 39.4092 121.76C39.1052 122.032 39.0892 122.384 39.0892 122.848V128H36.8492V121.616C36.8492 120.88 36.7852 119.856 36.7692 119.456H38.7852V120.736C39.2972 119.92 39.8572 119.248 40.9132 119.248C41.2332 119.248 41.5532 119.344 41.7292 119.408ZM49.6354 123.184C49.6354 123.456 49.6194 123.824 49.5874 124.112H44.2914C44.2914 124.128 44.2914 124.144 44.2914 124.16C44.2914 125.68 45.3954 126.496 46.8354 126.496C47.6034 126.496 48.4194 126.176 48.8674 125.936L49.4594 127.6C48.8034 127.904 47.6674 128.272 46.4194 128.272C43.7474 128.272 42.0674 126.448 42.0674 123.792C42.0674 121.536 43.2834 119.184 46.0194 119.184C48.6594 119.184 49.6354 121.216 49.6354 123.184ZM47.5234 122.592C47.6034 121.696 47.0594 120.752 45.9234 120.752C44.6434 120.752 44.2434 121.84 44.2434 122.592H47.5234ZM58.6864 127.952C58.3504 128.032 57.7904 128.16 57.2624 128.16C56.4624 128.16 56.0624 127.664 55.9344 126.992C55.2304 127.824 54.5744 128.24 53.4064 128.24C51.9024 128.24 50.8784 127.152 50.8784 125.696C50.8784 123.376 53.3104 122.928 55.1984 122.928C55.5504 122.928 55.7584 122.912 55.7584 122.624V122.064C55.7584 121.456 55.3744 120.88 54.1904 120.88C53.1984 120.88 52.4464 121.344 52.0784 121.664L51.2944 120.064C52.2384 119.456 53.2784 119.184 54.7504 119.184C55.9504 119.184 57.8864 119.616 57.8864 122.08V126.016C57.8864 126.32 57.9184 126.576 58.1904 126.576C58.2864 126.576 58.4624 126.528 58.5584 126.496L58.6864 127.952ZM55.7424 125.12V124.32C55.5024 124.304 55.2624 124.304 55.0704 124.304C54.2864 124.304 53.1024 124.496 53.1024 125.52C53.1024 126.144 53.5504 126.592 54.1744 126.592C54.6704 126.592 55.0864 126.432 55.3744 126.128C55.6304 125.856 55.7424 125.536 55.7424 125.12ZM65.0703 128.048C64.6543 128.16 63.8703 128.272 63.1183 128.272C61.5983 128.272 60.6543 127.456 60.6543 125.808V121.216H59.2303V119.616H60.6543V117.888L62.8943 117.168V119.616H64.8463V121.216H62.8943V125.536C62.8943 126.384 63.3583 126.576 63.8703 126.576C64.3343 126.576 64.6543 126.464 64.8463 126.4L65.0703 128.048ZM73.4948 123.184C73.4948 123.456 73.4788 123.824 73.4468 124.112H68.1508C68.1508 124.128 68.1508 124.144 68.1508 124.16C68.1508 125.68 69.2548 126.496 70.6948 126.496C71.4628 126.496 72.2788 126.176 72.7268 125.936L73.3188 127.6C72.6628 127.904 71.5268 128.272 70.2788 128.272C67.6068 128.272 65.9268 126.448 65.9268 123.792C65.9268 121.536 67.1428 119.184 69.8788 119.184C72.5188 119.184 73.4948 121.216 73.4948 123.184ZM71.3828 122.592C71.4628 121.696 70.9188 120.752 69.7828 120.752C68.5028 120.752 68.1028 121.84 68.1028 122.592H71.3828ZM86.7262 119.456L83.8622 128.48C83.3342 130.128 82.3582 131.264 80.0542 131.44L79.8462 129.712C80.5822 129.728 81.5742 129.456 81.8142 128.496L78.9022 119.456H81.3662L82.5502 124.304C82.7422 125.072 82.9022 125.904 82.9342 126.16H82.9662C83.0622 125.712 83.1902 125.056 83.3822 124.304L84.6142 119.456H86.7262ZM95.6028 123.744C95.6028 126.16 94.2428 128.304 91.4748 128.304C88.6748 128.304 87.4268 126.144 87.4268 123.712C87.4268 121.296 88.7868 119.152 91.5548 119.152C94.3548 119.152 95.6028 121.312 95.6028 123.744ZM93.2668 123.76C93.2668 122.56 92.9788 120.912 91.5548 120.912C90.1308 120.912 89.7628 122.496 89.7628 123.696C89.7628 124.896 90.0508 126.544 91.4748 126.544C92.8988 126.544 93.2668 124.96 93.2668 123.76ZM104.292 128H102.212V126.944C101.636 127.76 100.916 128.272 99.8444 128.272C98.0044 128.272 97.2364 126.992 97.2364 125.328V119.456H99.4764V124.864C99.4764 125.728 99.8124 126.336 100.66 126.336C101.076 126.336 101.428 126.16 101.636 125.936C102.02 125.52 102.052 125.296 102.052 124.72V119.456H104.292V128ZM111.557 119.408L110.965 121.648C110.805 121.568 110.485 121.424 110.181 121.424C109.701 121.424 109.445 121.568 109.237 121.76C108.933 122.032 108.917 122.384 108.917 122.848V128H106.677V121.616C106.677 120.88 106.613 119.856 106.597 119.456H108.613V120.736C109.125 119.92 109.685 119.248 110.741 119.248C111.061 119.248 111.381 119.344 111.557 119.408ZM124.577 127.952C124.241 128.032 123.681 128.16 123.153 128.16C122.353 128.16 121.953 127.664 121.825 126.992C121.121 127.824 120.465 128.24 119.297 128.24C117.793 128.24 116.769 127.152 116.769 125.696C116.769 123.376 119.201 122.928 121.089 122.928C121.441 122.928 121.649 122.912 121.649 122.624V122.064C121.649 121.456 121.265 120.88 120.081 120.88C119.089 120.88 118.337 121.344 117.969 121.664L117.185 120.064C118.129 119.456 119.169 119.184 120.641 119.184C121.841 119.184 123.777 119.616 123.777 122.08V126.016C123.777 126.32 123.809 126.576 124.081 126.576C124.177 126.576 124.353 126.528 124.449 126.496L124.577 127.952ZM121.633 125.12V124.32C121.393 124.304 121.153 124.304 120.961 124.304C120.177 124.304 118.993 124.496 118.993 125.52C118.993 126.144 119.441 126.592 120.065 126.592C120.561 126.592 120.977 126.432 121.265 126.128C121.521 125.856 121.633 125.536 121.633 125.12ZM132.225 127.568C131.777 127.904 130.673 128.272 129.633 128.272C127.009 128.272 125.505 126.336 125.505 123.84C125.505 121.504 126.737 119.184 129.633 119.184C130.785 119.184 131.681 119.488 132.241 119.792L131.441 121.664C131.153 121.472 130.513 121.088 129.777 121.088C128.481 121.088 127.841 122.288 127.841 123.792C127.841 125.44 128.897 126.416 129.905 126.416C130.545 126.416 131.201 126.144 131.585 125.904L132.225 127.568ZM139.881 127.568C139.433 127.904 138.329 128.272 137.289 128.272C134.665 128.272 133.161 126.336 133.161 123.84C133.161 121.504 134.393 119.184 137.289 119.184C138.441 119.184 139.337 119.488 139.897 119.792L139.097 121.664C138.809 121.472 138.169 121.088 137.433 121.088C136.137 121.088 135.497 122.288 135.497 123.792C135.497 125.44 136.553 126.416 137.561 126.416C138.201 126.416 138.857 126.144 139.241 125.904L139.881 127.568ZM148.993 123.744C148.993 126.16 147.633 128.304 144.865 128.304C142.065 128.304 140.817 126.144 140.817 123.712C140.817 121.296 142.177 119.152 144.945 119.152C147.745 119.152 148.993 121.312 148.993 123.744ZM146.657 123.76C146.657 122.56 146.369 120.912 144.945 120.912C143.521 120.912 143.153 122.496 143.153 123.696C143.153 124.896 143.441 126.544 144.865 126.544C146.289 126.544 146.657 124.96 146.657 123.76ZM157.683 128H155.603V126.944C155.027 127.76 154.307 128.272 153.235 128.272C151.395 128.272 150.627 126.992 150.627 125.328V119.456H152.867V124.864C152.867 125.728 153.203 126.336 154.051 126.336C154.467 126.336 154.819 126.16 155.027 125.936C155.411 125.52 155.443 125.296 155.443 124.72V119.456H157.683V128ZM167.3 128H165.06V122.592C165.06 121.728 164.756 121.136 163.78 121.136C163.332 121.136 162.932 121.328 162.692 121.552C162.26 121.968 162.228 122.176 162.228 122.752V128H159.988V119.456H162.068V120.672C162.676 119.76 163.476 119.184 164.644 119.184C166.548 119.184 167.3 120.464 167.3 122.128V128ZM174.398 128.048C173.982 128.16 173.198 128.272 172.446 128.272C170.926 128.272 169.982 127.456 169.982 125.808V121.216H168.558V119.616H169.982V117.888L172.222 117.168V119.616H174.174V121.216H172.222V125.536C172.222 126.384 172.686 126.576 173.198 126.576C173.662 126.576 173.982 126.464 174.174 126.4L174.398 128.048ZM178.311 126.816C178.311 127.552 177.799 128.096 176.967 128.096C176.135 128.096 175.607 127.552 175.607 126.816C175.607 126.08 176.135 125.536 176.967 125.536C177.799 125.536 178.311 126.08 178.311 126.816Z" fill="#FEFFF3"/>
<path d="M100.678 39.168L101.278 26.688L97.4855 27.96L96.9575 23.64L101.518 22.008L107.086 22.32L106.918 38.928L100.678 39.168Z" fill="#C7B4FE"/>
<path d="M150 28.5C148.619 28.5 147.5 29.6193 147.5 31C147.5 32.3807 148.619 33.5 150 33.5V28.5ZM335.768 32.7678C336.744 31.7915 336.744 30.2085 335.768 29.2322L319.858 13.3223C318.882 12.346 317.299 12.346 316.322 13.3223C315.346 14.2986 315.346 15.8816 316.322 16.8579L330.464 31L316.322 45.1421C315.346 46.1184 315.346 47.7014 316.322 48.6777C317.299 49.654 318.882 49.654 319.858 48.6777L335.768 32.7678ZM150 33.5H334V28.5H150V33.5Z" fill="#611FB8"/>
<path d="M378.395 3.5778C379.743 3.01958 381.257 3.01958 382.605 3.5778L398.049 9.97484C399.396 10.5331 400.467 11.6038 401.025 12.9514L407.422 28.3952C407.98 29.7429 407.98 31.2571 407.422 32.6048L401.025 48.0486C400.467 49.3962 399.396 50.4669 398.049 51.0252L382.605 57.4222C381.257 57.9804 379.743 57.9804 378.395 57.4222L362.951 51.0252C361.604 50.4669 360.533 49.3962 359.975 48.0486L353.578 32.6048C353.02 31.2571 353.02 29.7429 353.578 28.3952L359.975 12.9514C360.533 11.6038 361.604 10.5331 362.951 9.97484L378.395 3.5778Z" stroke="#611FB8" stroke-width="5"/>
<path d="M374.096 33.648C377.696 31.872 380.672 29.664 380.672 28.128C380.672 27.264 380.12 26.76 379.16 26.76C377.864 26.76 376.976 27.12 375.08 27.96L374.144 23.304C376.136 22.404 377.984 21.972 379.88 21.972C380.192 21.972 380.516 21.984 380.84 22.008C383.648 22.224 385.952 23.856 386.432 25.992C387.104 28.92 384.752 32.064 380.576 33.864L386.912 34.056L386.192 39.264L374.576 38.856L374.096 33.648Z" fill="#C7B4FE"/>
<path d="M284.971 86.76L278.515 87.24L278.803 75.36L273.931 75.288L273.619 70.728L289.555 69.96L289.267 75.528L284.635 75.456L284.971 86.76ZM299.771 82.08V82.176L303.443 85.32L298.907 88.992L294.419 83.256L294.275 83.28L294.347 87.24L288.707 87L288.515 73.512C290.507 72.912 293.147 72.36 295.499 72.384C299.459 72.432 302.123 74.544 302.123 77.64C302.123 79.584 301.211 81.288 299.771 82.08ZM293.555 80.088C294.107 80.136 294.323 80.136 294.875 80.136C296.003 80.136 296.675 79.56 296.675 78.408C296.675 77.256 296.075 76.608 294.971 76.608C294.227 76.608 293.771 76.8 293.459 77.064L293.555 80.088ZM309.11 87.144C302.126 87.144 300.038 82.536 303.278 73.008L308.462 72.384C307.526 76.944 306.854 82.224 309.278 82.224C311.702 82.224 311.078 78.456 310.454 72.456L315.47 72.72C318.542 81.072 316.07 87.144 309.11 87.144ZM316.261 77.256C316.261 74.52 319.357 72.48 323.557 72.48C325.405 72.48 327.541 72.96 328.861 73.656L327.253 77.64C326.365 77.256 325.213 77.016 324.253 77.04C322.645 77.088 322.117 77.376 322.285 78.048C322.645 79.44 329.485 77.016 329.485 82.392C329.485 85.344 326.749 87.12 322.237 87.12C319.933 87.12 316.957 86.544 315.829 85.896L317.509 81.36C318.133 81.768 320.077 83.16 321.853 83.28C323.389 83.4 323.557 82.368 323.317 81.984C322.549 80.808 316.261 82.416 316.261 77.256ZM338.239 86.76L332.263 87.24L332.551 77.616L328.063 77.688L328.495 72.456L342.031 73.008L342.439 77.448L337.903 77.52L338.239 86.76ZM357.88 86.76L351.904 87.24L352.192 77.616L347.704 77.688L348.136 72.456L361.672 73.008L362.08 77.448L357.544 77.52L357.88 86.76ZM361.83 86.76L362.31 72.72L368.118 72.36L367.998 78.072L370.95 77.952L371.046 72.168L376.614 72.36L377.022 86.856L370.806 87.096L370.878 81.984L367.926 81.792L367.806 87L361.83 86.76ZM377.63 86.88L377.39 72.768L388.814 72.456L389.006 76.896L383.078 76.584L383.102 78.216L387.398 77.904L387.254 80.904L383.15 80.976L383.174 82.584L389.582 81.912L389.054 87.168L377.63 86.88ZM396.294 86.856L395.694 71.112C397.686 70.512 401.334 69.96 403.686 69.984C408.222 70.032 411.03 72.072 411.03 75.384C411.03 79.008 408.534 81.24 403.902 81.24C403.302 81.24 402.654 81.192 401.982 81.12L402.294 87.096L396.294 86.856ZM401.502 78.048C402.222 78.096 402.51 78.096 403.23 78.096C404.718 78.096 405.582 77.472 405.582 76.248C405.582 75.024 404.79 74.328 403.374 74.328C402.414 74.328 401.814 74.544 401.406 74.808L401.502 78.048ZM421.692 82.08V82.176L425.364 85.32L420.828 88.992L416.34 83.256L416.196 83.28L416.268 87.24L410.628 87L410.436 73.512C412.428 72.912 415.068 72.36 417.42 72.384C421.38 72.432 424.044 74.544 424.044 77.64C424.044 79.584 423.132 81.288 421.692 82.08ZM415.476 80.088C416.028 80.136 416.244 80.136 416.796 80.136C417.924 80.136 418.596 79.56 418.596 78.408C418.596 77.256 417.996 76.608 416.892 76.608C416.148 76.608 415.692 76.8 415.38 77.064L415.476 80.088ZM423.688 79.728C423.688 75.288 426.712 72.36 430.984 72.36C435.232 72.36 438.304 75.288 438.304 79.728C438.304 84.168 435.232 87.096 430.984 87.096C426.712 87.096 423.688 84.168 423.688 79.728ZM427.936 79.92C427.936 81.6 429.064 82.776 430.696 82.776C432.28 82.776 433.432 81.6 433.432 79.92C433.432 78.216 432.28 77.088 430.696 77.088C429.064 77.088 427.936 78.216 427.936 79.92ZM444.864 87.264C439.944 87.264 437.352 84.648 437.352 79.728C437.352 75.216 440.352 72.144 444.696 72.144C447.408 72.144 449.352 72.888 451.008 74.496L448.536 78.264C447.648 77.328 446.424 76.752 445.248 76.752C443.568 76.752 442.68 77.976 442.68 79.44C442.68 81 443.568 82.176 445.368 82.176C446.544 82.176 447.744 81.48 448.944 80.232L451.416 84.312C449.544 86.328 447.504 87.264 444.864 87.264ZM450.825 86.88L450.585 72.768L462.009 72.456L462.201 76.896L456.273 76.584L456.297 78.216L460.593 77.904L460.449 80.904L456.345 80.976L456.369 82.584L462.777 81.912L462.249 87.168L450.825 86.88ZM462.487 77.256C462.487 74.52 465.583 72.48 469.783 72.48C471.631 72.48 473.767 72.96 475.087 73.656L473.479 77.64C472.591 77.256 471.439 77.016 470.479 77.04C468.871 77.088 468.343 77.376 468.511 78.048C468.871 79.44 475.711 77.016 475.711 82.392C475.711 85.344 472.975 87.12 468.463 87.12C466.159 87.12 463.183 86.544 462.055 85.896L463.735 81.36C464.359 81.768 466.303 83.16 468.079 83.28C469.615 83.4 469.783 82.368 469.543 81.984C468.775 80.808 462.487 82.416 462.487 77.256ZM475.19 77.256C475.19 74.52 478.286 72.48 482.486 72.48C484.334 72.48 486.47 72.96 487.79 73.656L486.182 77.64C485.294 77.256 484.142 77.016 483.182 77.04C481.574 77.088 481.046 77.376 481.214 78.048C481.574 79.44 488.414 77.016 488.414 82.392C488.414 85.344 485.678 87.12 481.166 87.12C478.862 87.12 475.886 86.544 474.758 85.896L476.438 81.36C477.062 81.768 479.006 83.16 480.782 83.28C482.318 83.4 482.486 82.368 482.246 81.984C481.478 80.808 475.19 82.416 475.19 77.256Z" fill="#611FB8"/>
<path d="M296.965 107.488C296.101 107.952 294.869 108.272 293.717 108.272C290.853 108.272 288.117 106.384 288.117 102.48C288.117 99.104 290.085 96.4 293.717 96.4C295.109 96.4 296.133 96.688 296.949 97.056L296.133 99.12C295.397 98.704 294.565 98.512 293.845 98.512C292.117 98.512 290.709 99.648 290.709 102.368C290.709 104.96 292.405 106.16 294.037 106.16C294.933 106.16 295.733 105.888 296.293 105.552L296.965 107.488ZM305.79 103.744C305.79 106.16 304.43 108.304 301.662 108.304C298.862 108.304 297.614 106.144 297.614 103.712C297.614 101.296 298.974 99.152 301.742 99.152C304.542 99.152 305.79 101.312 305.79 103.744ZM303.454 103.76C303.454 102.56 303.166 100.912 301.742 100.912C300.318 100.912 299.95 102.496 299.95 103.696C299.95 104.896 300.238 106.544 301.662 106.544C303.086 106.544 303.454 104.96 303.454 103.76ZM319.296 108H317.056V102.592C317.056 101.728 316.752 101.136 315.904 101.136C315.488 101.136 315.152 101.312 314.944 101.536C314.56 101.952 314.512 102.208 314.512 102.752V108H312.272V102.592C312.272 101.728 311.968 101.136 311.12 101.136C310.704 101.136 310.352 101.312 310.144 101.536C309.76 101.952 309.728 102.176 309.728 102.752V108H307.488V99.456H309.568V100.592C310.144 99.728 310.8 99.184 311.936 99.184C313.072 99.184 313.824 99.712 314.24 100.72C314.832 99.824 315.568 99.184 316.72 99.184C318.56 99.184 319.296 100.464 319.296 102.128V108ZM329.294 103.632C329.294 105.552 328.286 108.272 325.55 108.272C324.942 108.272 324.222 108.08 323.79 107.664V111.2H321.55V99.456H323.63V100.72C324.222 99.792 324.942 99.184 326.126 99.184C328.366 99.184 329.294 101.568 329.294 103.632ZM326.958 103.952C326.958 102.8 326.67 101.12 325.246 101.12C324.798 101.12 324.478 101.312 324.222 101.552C323.838 101.92 323.79 102.144 323.79 102.64V105.552C323.79 106.144 324.142 106.656 325.166 106.656C326.606 106.656 326.958 105.12 326.958 103.952ZM333.228 108H330.988V96.16H333.228V108ZM342.479 103.184C342.479 103.456 342.463 103.824 342.431 104.112H337.135C337.135 104.128 337.135 104.144 337.135 104.16C337.135 105.68 338.239 106.496 339.679 106.496C340.447 106.496 341.263 106.176 341.711 105.936L342.303 107.6C341.647 107.904 340.511 108.272 339.263 108.272C336.591 108.272 334.911 106.448 334.911 103.792C334.911 101.536 336.127 99.184 338.863 99.184C341.503 99.184 342.479 101.216 342.479 103.184ZM340.367 102.592C340.447 101.696 339.903 100.752 338.767 100.752C337.487 100.752 337.087 101.84 337.087 102.592H340.367ZM349.242 108.048C348.826 108.16 348.042 108.272 347.29 108.272C345.77 108.272 344.826 107.456 344.826 105.808V101.216H343.402V99.616H344.826V97.888L347.066 97.168V99.616H349.018V101.216H347.066V105.536C347.066 106.384 347.53 106.576 348.042 106.576C348.506 106.576 348.826 106.464 349.018 106.4L349.242 108.048ZM357.667 103.184C357.667 103.456 357.651 103.824 357.619 104.112H352.323C352.323 104.128 352.323 104.144 352.323 104.16C352.323 105.68 353.427 106.496 354.867 106.496C355.635 106.496 356.451 106.176 356.899 105.936L357.491 107.6C356.835 107.904 355.699 108.272 354.451 108.272C351.779 108.272 350.099 106.448 350.099 103.792C350.099 101.536 351.315 99.184 354.051 99.184C356.691 99.184 357.667 101.216 357.667 103.184ZM355.555 102.592C355.635 101.696 355.091 100.752 353.955 100.752C352.675 100.752 352.275 101.84 352.275 102.592H355.555ZM366.578 97.184C366.578 97.872 366.098 98.368 365.33 98.368C364.562 98.368 364.066 97.872 364.066 97.184C364.066 96.496 364.562 96 365.33 96C366.098 96 366.578 96.496 366.578 97.184ZM366.434 108H364.194V99.456H366.434V108ZM376.222 108H373.982V102.592C373.982 101.728 373.678 101.136 372.702 101.136C372.254 101.136 371.854 101.328 371.614 101.552C371.182 101.968 371.15 102.176 371.15 102.752V108H368.91V99.456H370.99V100.672C371.598 99.76 372.398 99.184 373.566 99.184C375.47 99.184 376.222 100.464 376.222 102.128V108ZM381.656 104.592H377.464V102.48H381.656V104.592ZM390.705 108.384C390.705 110.544 388.513 111.44 386.513 111.44C385.153 111.44 382.737 110.992 382.737 109.184C382.737 108.208 383.377 107.696 383.985 107.456V107.424C383.601 107.248 383.137 106.768 383.137 106.08C383.137 105.184 383.633 104.56 384.065 104.256C383.489 103.712 383.217 102.976 383.217 102.16C383.217 100.592 384.321 99.184 386.561 99.184C387.217 99.184 387.921 99.36 388.369 99.616H390.721V101.216H389.697C389.761 101.408 389.857 101.808 389.857 102.144C389.857 103.712 388.737 105.072 386.497 105.072C386.081 105.072 385.681 104.992 385.393 104.912C385.137 104.848 385.057 104.816 384.865 105.024C384.801 105.088 384.737 105.328 384.737 105.488C384.737 105.856 385.009 106.144 385.537 106.144H388.273C389.681 106.144 390.705 106.912 390.705 108.384ZM387.745 102.144C387.745 101.472 387.489 100.56 386.561 100.56C385.633 100.56 385.329 101.504 385.329 102.16C385.329 102.848 385.585 103.712 386.513 103.712C387.441 103.712 387.745 102.8 387.745 102.144ZM388.513 108.768C388.513 108.144 388.097 107.92 387.601 107.92H385.217C384.913 107.92 384.657 108.128 384.657 108.752C384.657 109.712 385.825 109.984 386.513 109.984C387.953 109.984 388.513 109.36 388.513 108.768ZM399.249 107.952C398.913 108.032 398.353 108.16 397.825 108.16C397.025 108.16 396.625 107.664 396.497 106.992C395.793 107.824 395.137 108.24 393.969 108.24C392.465 108.24 391.441 107.152 391.441 105.696C391.441 103.376 393.873 102.928 395.761 102.928C396.113 102.928 396.321 102.912 396.321 102.624V102.064C396.321 101.456 395.937 100.88 394.753 100.88C393.761 100.88 393.009 101.344 392.641 101.664L391.857 100.064C392.801 99.456 393.841 99.184 395.313 99.184C396.513 99.184 398.449 99.616 398.449 102.08V106.016C398.449 106.32 398.481 106.576 398.753 106.576C398.849 106.576 399.025 106.528 399.121 106.496L399.249 107.952ZM396.305 105.12V104.32C396.065 104.304 395.825 104.304 395.633 104.304C394.849 104.304 393.665 104.496 393.665 105.52C393.665 106.144 394.113 106.592 394.737 106.592C395.233 106.592 395.649 106.432 395.937 106.128C396.193 105.856 396.305 105.536 396.305 105.12ZM412.593 108H410.353V102.592C410.353 101.728 410.049 101.136 409.201 101.136C408.785 101.136 408.449 101.312 408.241 101.536C407.857 101.952 407.809 102.208 407.809 102.752V108H405.569V102.592C405.569 101.728 405.265 101.136 404.417 101.136C404.001 101.136 403.649 101.312 403.441 101.536C403.057 101.952 403.025 102.176 403.025 102.752V108H400.785V99.456H402.865V100.592C403.441 99.728 404.097 99.184 405.233 99.184C406.369 99.184 407.121 99.712 407.537 100.72C408.129 99.824 408.865 99.184 410.017 99.184C411.857 99.184 412.593 100.464 412.593 102.128V108ZM421.807 103.184C421.807 103.456 421.791 103.824 421.759 104.112H416.463C416.463 104.128 416.463 104.144 416.463 104.16C416.463 105.68 417.567 106.496 419.007 106.496C419.775 106.496 420.591 106.176 421.039 105.936L421.631 107.6C420.975 107.904 419.839 108.272 418.591 108.272C415.919 108.272 414.239 106.448 414.239 103.792C414.239 101.536 415.455 99.184 418.191 99.184C420.831 99.184 421.807 101.216 421.807 103.184ZM419.695 102.592C419.775 101.696 419.231 100.752 418.095 100.752C416.815 100.752 416.415 101.84 416.415 102.592H419.695ZM435.327 111.2H433.087V106.896C432.527 107.712 431.951 108.272 430.863 108.272C428.463 108.272 427.599 105.664 427.599 103.664C427.599 101.664 428.607 99.184 431.343 99.184C431.951 99.184 432.703 99.424 433.151 99.872V99.456H435.327V111.2ZM433.087 104.816V101.936C433.087 101.296 432.735 100.816 431.647 100.816C430.271 100.816 429.919 102.16 429.919 103.376C429.919 104.528 430.191 106.352 431.679 106.352C432.127 106.352 432.479 106.144 432.703 105.936C433.055 105.584 433.087 105.264 433.087 104.816ZM444.621 108H442.541V106.944C441.965 107.76 441.245 108.272 440.173 108.272C438.333 108.272 437.565 106.992 437.565 105.328V99.456H439.805V104.864C439.805 105.728 440.141 106.336 440.989 106.336C441.405 106.336 441.757 106.16 441.965 105.936C442.349 105.52 442.381 105.296 442.381 104.72V99.456H444.621V108ZM453.885 103.184C453.885 103.456 453.869 103.824 453.837 104.112H448.541C448.541 104.128 448.541 104.144 448.541 104.16C448.541 105.68 449.645 106.496 451.085 106.496C451.853 106.496 452.669 106.176 453.117 105.936L453.709 107.6C453.053 107.904 451.917 108.272 450.669 108.272C447.997 108.272 446.317 106.448 446.317 103.792C446.317 101.536 447.533 99.184 450.269 99.184C452.909 99.184 453.885 101.216 453.885 103.184ZM451.773 102.592C451.853 101.696 451.309 100.752 450.173 100.752C448.893 100.752 448.493 101.84 448.493 102.592H451.773ZM461.32 105.44C461.32 107.104 459.976 108.272 457.736 108.272C456.664 108.272 455.704 107.904 455.224 107.616L455.912 105.968C456.456 106.352 457.24 106.608 457.912 106.608C458.504 106.608 459.224 106.4 459.224 105.728C459.224 105.168 458.76 104.992 457.96 104.688L457.256 104.416C456.152 103.984 455.416 103.328 455.416 102.08C455.416 100.464 456.776 99.184 458.776 99.184C459.848 99.184 460.632 99.52 461.08 99.744L460.392 101.392C459.896 101.072 459.208 100.88 458.664 100.88C457.752 100.88 457.48 101.344 457.48 101.728C457.48 102.176 457.896 102.432 458.488 102.64L459.24 102.912C460.456 103.36 461.32 104.016 461.32 105.44ZM467.93 108.048C467.514 108.16 466.73 108.272 465.978 108.272C464.458 108.272 463.514 107.456 463.514 105.808V101.216H462.09V99.616H463.514V97.888L465.754 97.168V99.616H467.706V101.216H465.754V105.536C465.754 106.384 466.218 106.576 466.73 106.576C467.194 106.576 467.514 106.464 467.706 106.4L467.93 108.048ZM474.914 105.44C474.914 107.104 473.57 108.272 471.33 108.272C470.258 108.272 469.298 107.904 468.818 107.616L469.506 105.968C470.05 106.352 470.834 106.608 471.506 106.608C472.098 106.608 472.818 106.4 472.818 105.728C472.818 105.168 472.354 104.992 471.554 104.688L470.85 104.416C469.746 103.984 469.01 103.328 469.01 102.08C469.01 100.464 470.37 99.184 472.37 99.184C473.442 99.184 474.226 99.52 474.674 99.744L473.986 101.392C473.49 101.072 472.802 100.88 472.258 100.88C471.346 100.88 471.074 101.344 471.074 101.728C471.074 102.176 471.49 102.432 472.082 102.64L472.834 102.912C474.05 103.36 474.914 104.016 474.914 105.44ZM306.898 128.048C306.482 128.16 305.698 128.272 304.946 128.272C303.426 128.272 302.482 127.456 302.482 125.808V121.216H301.058V119.616H302.482V117.888L304.722 117.168V119.616H306.674V121.216H304.722V125.536C304.722 126.384 305.186 126.576 305.698 126.576C306.162 126.576 306.482 126.464 306.674 126.4L306.898 128.048ZM315.931 123.744C315.931 126.16 314.571 128.304 311.803 128.304C309.003 128.304 307.755 126.144 307.755 123.712C307.755 121.296 309.115 119.152 311.883 119.152C314.683 119.152 315.931 121.312 315.931 123.744ZM313.595 123.76C313.595 122.56 313.307 120.912 311.883 120.912C310.459 120.912 310.091 122.496 310.091 123.696C310.091 124.896 310.379 126.544 311.803 126.544C313.227 126.544 313.595 124.96 313.595 123.76ZM329.249 127.952C328.913 128.032 328.353 128.16 327.825 128.16C327.025 128.16 326.625 127.664 326.497 126.992C325.793 127.824 325.137 128.24 323.969 128.24C322.465 128.24 321.441 127.152 321.441 125.696C321.441 123.376 323.873 122.928 325.761 122.928C326.113 122.928 326.321 122.912 326.321 122.624V122.064C326.321 121.456 325.937 120.88 324.753 120.88C323.761 120.88 323.009 121.344 322.641 121.664L321.857 120.064C322.801 119.456 323.841 119.184 325.313 119.184C326.513 119.184 328.449 119.616 328.449 122.08V126.016C328.449 126.32 328.481 126.576 328.753 126.576C328.849 126.576 329.025 126.528 329.121 126.496L329.249 127.952ZM326.305 125.12V124.32C326.065 124.304 325.825 124.304 325.633 124.304C324.849 124.304 323.665 124.496 323.665 125.52C323.665 126.144 324.113 126.592 324.737 126.592C325.233 126.592 325.649 126.432 325.937 126.128C326.193 125.856 326.305 125.536 326.305 125.12ZM336.897 127.568C336.449 127.904 335.345 128.272 334.305 128.272C331.681 128.272 330.177 126.336 330.177 123.84C330.177 121.504 331.409 119.184 334.305 119.184C335.457 119.184 336.353 119.488 336.913 119.792L336.113 121.664C335.825 121.472 335.185 121.088 334.449 121.088C333.153 121.088 332.513 122.288 332.513 123.792C332.513 125.44 333.569 126.416 334.577 126.416C335.217 126.416 335.873 126.144 336.257 125.904L336.897 127.568ZM344.553 127.568C344.105 127.904 343.001 128.272 341.961 128.272C339.337 128.272 337.833 126.336 337.833 123.84C337.833 121.504 339.065 119.184 341.961 119.184C343.113 119.184 344.009 119.488 344.569 119.792L343.769 121.664C343.481 121.472 342.841 121.088 342.105 121.088C340.809 121.088 340.169 122.288 340.169 123.792C340.169 125.44 341.225 126.416 342.233 126.416C342.873 126.416 343.529 126.144 343.913 125.904L344.553 127.568ZM353.246 128H351.166V126.944C350.59 127.76 349.87 128.272 348.798 128.272C346.958 128.272 346.19 126.992 346.19 125.328V119.456H348.43V124.864C348.43 125.728 348.766 126.336 349.614 126.336C350.03 126.336 350.382 126.16 350.59 125.936C350.974 125.52 351.006 125.296 351.006 124.72V119.456H353.246V128ZM367.358 128H365.118V122.592C365.118 121.728 364.814 121.136 363.966 121.136C363.55 121.136 363.214 121.312 363.006 121.536C362.622 121.952 362.574 122.208 362.574 122.752V128H360.334V122.592C360.334 121.728 360.03 121.136 359.182 121.136C358.766 121.136 358.414 121.312 358.206 121.536C357.822 121.952 357.79 122.176 357.79 122.752V128H355.55V119.456H357.63V120.592C358.206 119.728 358.862 119.184 359.998 119.184C361.134 119.184 361.886 119.712 362.302 120.72C362.894 119.824 363.63 119.184 364.782 119.184C366.622 119.184 367.358 120.464 367.358 122.128V128ZM376.605 128H374.525V126.944C373.949 127.76 373.229 128.272 372.157 128.272C370.317 128.272 369.549 126.992 369.549 125.328V119.456H371.789V124.864C371.789 125.728 372.125 126.336 372.973 126.336C373.389 126.336 373.741 126.16 373.949 125.936C374.333 125.52 374.365 125.296 374.365 124.72V119.456H376.605V128ZM381.15 128H378.91V116.16H381.15V128ZM390.577 127.952C390.241 128.032 389.681 128.16 389.153 128.16C388.353 128.16 387.953 127.664 387.825 126.992C387.121 127.824 386.465 128.24 385.297 128.24C383.793 128.24 382.769 127.152 382.769 125.696C382.769 123.376 385.201 122.928 387.089 122.928C387.441 122.928 387.649 122.912 387.649 122.624V122.064C387.649 121.456 387.265 120.88 386.081 120.88C385.089 120.88 384.337 121.344 383.969 121.664L383.185 120.064C384.129 119.456 385.169 119.184 386.641 119.184C387.841 119.184 389.777 119.616 389.777 122.08V126.016C389.777 126.32 389.809 126.576 390.081 126.576C390.177 126.576 390.353 126.528 390.449 126.496L390.577 127.952ZM387.633 125.12V124.32C387.393 124.304 387.153 124.304 386.961 124.304C386.177 124.304 384.993 124.496 384.993 125.52C384.993 126.144 385.441 126.592 386.065 126.592C386.561 126.592 386.977 126.432 387.265 126.128C387.521 125.856 387.633 125.536 387.633 125.12ZM396.961 128.048C396.545 128.16 395.761 128.272 395.009 128.272C393.489 128.272 392.545 127.456 392.545 125.808V121.216H391.121V119.616H392.545V117.888L394.785 117.168V119.616H396.737V121.216H394.785V125.536C394.785 126.384 395.249 126.576 395.761 126.576C396.225 126.576 396.545 126.464 396.737 126.4L396.961 128.048ZM405.385 123.184C405.385 123.456 405.369 123.824 405.337 124.112H400.041C400.041 124.128 400.041 124.144 400.041 124.16C400.041 125.68 401.145 126.496 402.585 126.496C403.353 126.496 404.169 126.176 404.617 125.936L405.209 127.6C404.553 127.904 403.417 128.272 402.169 128.272C399.497 128.272 397.817 126.448 397.817 123.792C397.817 121.536 399.033 119.184 401.769 119.184C404.409 119.184 405.385 121.216 405.385 123.184ZM403.273 122.592C403.353 121.696 402.809 120.752 401.673 120.752C400.393 120.752 399.993 121.84 399.993 122.592H403.273ZM419.529 123.632C419.529 125.552 418.521 128.272 415.785 128.272C415.177 128.272 414.457 128.08 414.025 127.664V131.2H411.785V119.456H413.865V120.72C414.457 119.792 415.177 119.184 416.361 119.184C418.601 119.184 419.529 121.568 419.529 123.632ZM417.193 123.952C417.193 122.8 416.905 121.12 415.481 121.12C415.033 121.12 414.713 121.312 414.457 121.552C414.073 121.92 414.025 122.144 414.025 122.64V125.552C414.025 126.144 414.377 126.656 415.401 126.656C416.841 126.656 417.193 125.12 417.193 123.952ZM429.072 123.744C429.072 126.16 427.712 128.304 424.944 128.304C422.144 128.304 420.896 126.144 420.896 123.712C420.896 121.296 422.256 119.152 425.024 119.152C427.824 119.152 429.072 121.312 429.072 123.744ZM426.736 123.76C426.736 122.56 426.448 120.912 425.024 120.912C423.6 120.912 423.232 122.496 423.232 123.696C423.232 124.896 423.52 126.544 424.944 126.544C426.368 126.544 426.736 124.96 426.736 123.76ZM433.281 117.184C433.281 117.872 432.801 118.368 432.033 118.368C431.265 118.368 430.769 117.872 430.769 117.184C430.769 116.496 431.265 116 432.033 116C432.801 116 433.281 116.496 433.281 117.184ZM433.137 128H430.897V119.456H433.137V128ZM442.925 128H440.685V122.592C440.685 121.728 440.381 121.136 439.405 121.136C438.957 121.136 438.557 121.328 438.317 121.552C437.885 121.968 437.853 122.176 437.853 122.752V128H435.613V119.456H437.693V120.672C438.301 119.76 439.101 119.184 440.269 119.184C442.173 119.184 442.925 120.464 442.925 122.128V128ZM450.023 128.048C449.607 128.16 448.823 128.272 448.071 128.272C446.551 128.272 445.607 127.456 445.607 125.808V121.216H444.183V119.616H445.607V117.888L447.847 117.168V119.616H449.799V121.216H447.847V125.536C447.847 126.384 448.311 126.576 448.823 126.576C449.287 126.576 449.607 126.464 449.799 126.4L450.023 128.048ZM457.008 125.44C457.008 127.104 455.664 128.272 453.424 128.272C452.352 128.272 451.392 127.904 450.912 127.616L451.6 125.968C452.144 126.352 452.928 126.608 453.6 126.608C454.192 126.608 454.912 126.4 454.912 125.728C454.912 125.168 454.448 124.992 453.648 124.688L452.944 124.416C451.84 123.984 451.104 123.328 451.104 122.08C451.104 120.464 452.464 119.184 454.464 119.184C455.536 119.184 456.32 119.52 456.768 119.744L456.08 121.392C455.584 121.072 454.896 120.88 454.352 120.88C453.44 120.88 453.168 121.344 453.168 121.728C453.168 122.176 453.584 122.432 454.176 122.64L454.928 122.912C456.144 123.36 457.008 124.016 457.008 125.44ZM461.217 126.816C461.217 127.552 460.705 128.096 459.873 128.096C459.041 128.096 458.513 127.552 458.513 126.816C458.513 126.08 459.041 125.536 459.873 125.536C460.705 125.536 461.217 126.08 461.217 126.816Z" fill="#FEFFF3"/>
<path d="M428 28.5C426.619 28.5 425.5 29.6193 425.5 31C425.5 32.3807 426.619 33.5 428 33.5V28.5ZM613.768 32.7678C614.744 31.7915 614.744 30.2085 613.768 29.2322L597.858 13.3223C596.882 12.346 595.299 12.346 594.322 13.3223C593.346 14.2986 593.346 15.8816 594.322 16.8579L608.464 31L594.322 45.1421C593.346 46.1184 593.346 47.7014 594.322 48.6777C595.299 49.654 596.882 49.654 597.858 48.6777L613.768 32.7678ZM428 33.5H612V28.5H428V33.5Z" fill="#611FB8"/>
<path d="M656.395 3.5778C657.743 3.01958 659.257 3.01958 660.605 3.5778L676.049 9.97484C677.396 10.5331 678.467 11.6038 679.025 12.9514L685.422 28.3952C685.98 29.7429 685.98 31.2571 685.422 32.6048L679.025 48.0486C678.467 49.3962 677.396 50.4669 676.049 51.0252L660.605 57.4222C659.257 57.9804 657.743 57.9804 656.395 57.4222L640.951 51.0252C639.604 50.4669 638.533 49.3962 637.975 48.0486L631.578 32.6048C631.02 31.2571 631.02 29.7429 631.578 28.3952L637.975 12.9514C638.533 11.6038 639.604 10.5331 640.951 9.97484L656.395 3.5778Z" stroke="#611FB8" stroke-width="5"/>
<path d="M652.096 33.648C655.696 31.872 658.672 29.664 658.672 28.128C658.672 27.264 658.12 26.76 657.16 26.76C655.864 26.76 654.976 27.12 653.08 27.96L652.144 23.304C654.136 22.404 655.984 21.972 657.88 21.972C658.192 21.972 658.516 21.984 658.84 22.008C661.648 22.224 663.952 23.856 664.432 25.992C665.104 28.92 662.752 32.064 658.576 33.864L664.912 34.056L664.192 39.264L652.576 38.856L652.096 33.648Z" fill="#C7B4FE"/>
<path d="M562.971 86.76L556.515 87.24L556.803 75.36L551.931 75.288L551.619 70.728L567.555 69.96L567.267 75.528L562.635 75.456L562.971 86.76ZM577.771 82.08V82.176L581.443 85.32L576.907 88.992L572.419 83.256L572.275 83.28L572.347 87.24L566.707 87L566.515 73.512C568.507 72.912 571.147 72.36 573.499 72.384C577.459 72.432 580.123 74.544 580.123 77.64C580.123 79.584 579.211 81.288 577.771 82.08ZM571.555 80.088C572.107 80.136 572.323 80.136 572.875 80.136C574.003 80.136 574.675 79.56 574.675 78.408C574.675 77.256 574.075 76.608 572.971 76.608C572.227 76.608 571.771 76.8 571.459 77.064L571.555 80.088ZM587.11 87.144C580.126 87.144 578.038 82.536 581.278 73.008L586.462 72.384C585.526 76.944 584.854 82.224 587.278 82.224C589.702 82.224 589.078 78.456 588.454 72.456L593.47 72.72C596.542 81.072 594.07 87.144 587.11 87.144ZM594.261 77.256C594.261 74.52 597.357 72.48 601.557 72.48C603.405 72.48 605.541 72.96 606.861 73.656L605.253 77.64C604.365 77.256 603.213 77.016 602.253 77.04C600.645 77.088 600.117 77.376 600.285 78.048C600.645 79.44 607.485 77.016 607.485 82.392C607.485 85.344 604.749 87.12 600.237 87.12C597.933 87.12 594.957 86.544 593.829 85.896L595.509 81.36C596.133 81.768 598.077 83.16 599.853 83.28C601.389 83.4 601.557 82.368 601.317 81.984C600.549 80.808 594.261 82.416 594.261 77.256ZM616.239 86.76L610.263 87.24L610.551 77.616L606.063 77.688L606.495 72.456L620.031 73.008L620.439 77.448L615.903 77.52L616.239 86.76ZM635.88 86.76L629.904 87.24L630.192 77.616L625.704 77.688L626.136 72.456L639.672 73.008L640.08 77.448L635.544 77.52L635.88 86.76ZM639.83 86.76L640.31 72.72L646.118 72.36L645.998 78.072L648.95 77.952L649.046 72.168L654.614 72.36L655.022 86.856L648.806 87.096L648.878 81.984L645.926 81.792L645.806 87L639.83 86.76ZM655.63 86.88L655.39 72.768L666.814 72.456L667.006 76.896L661.078 76.584L661.102 78.216L665.398 77.904L665.254 80.904L661.15 80.976L661.174 82.584L667.582 81.912L667.054 87.168L655.63 86.88ZM674.294 86.856L673.694 71.112C675.686 70.512 679.334 69.96 681.686 69.984C686.222 70.032 689.03 72.072 689.03 75.384C689.03 79.008 686.534 81.24 681.902 81.24C681.302 81.24 680.654 81.192 679.982 81.12L680.294 87.096L674.294 86.856ZM679.502 78.048C680.222 78.096 680.51 78.096 681.23 78.096C682.718 78.096 683.582 77.472 683.582 76.248C683.582 75.024 682.79 74.328 681.374 74.328C680.414 74.328 679.814 74.544 679.406 74.808L679.502 78.048ZM699.692 82.08V82.176L703.364 85.32L698.828 88.992L694.34 83.256L694.196 83.28L694.268 87.24L688.628 87L688.436 73.512C690.428 72.912 693.068 72.36 695.42 72.384C699.38 72.432 702.044 74.544 702.044 77.64C702.044 79.584 701.132 81.288 699.692 82.08ZM693.476 80.088C694.028 80.136 694.244 80.136 694.796 80.136C695.924 80.136 696.596 79.56 696.596 78.408C696.596 77.256 695.996 76.608 694.892 76.608C694.148 76.608 693.692 76.8 693.38 77.064L693.476 80.088ZM701.688 79.728C701.688 75.288 704.712 72.36 708.984 72.36C713.232 72.36 716.304 75.288 716.304 79.728C716.304 84.168 713.232 87.096 708.984 87.096C704.712 87.096 701.688 84.168 701.688 79.728ZM705.936 79.92C705.936 81.6 707.064 82.776 708.696 82.776C710.28 82.776 711.432 81.6 711.432 79.92C711.432 78.216 710.28 77.088 708.696 77.088C707.064 77.088 705.936 78.216 705.936 79.92ZM722.864 87.264C717.944 87.264 715.352 84.648 715.352 79.728C715.352 75.216 718.352 72.144 722.696 72.144C725.408 72.144 727.352 72.888 729.008 74.496L726.536 78.264C725.648 77.328 724.424 76.752 723.248 76.752C721.568 76.752 720.68 77.976 720.68 79.44C720.68 81 721.568 82.176 723.368 82.176C724.544 82.176 725.744 81.48 726.944 80.232L729.416 84.312C727.544 86.328 725.504 87.264 722.864 87.264ZM728.825 86.88L728.585 72.768L740.009 72.456L740.201 76.896L734.273 76.584L734.297 78.216L738.593 77.904L738.449 80.904L734.345 80.976L734.369 82.584L740.777 81.912L740.249 87.168L728.825 86.88ZM740.487 77.256C740.487 74.52 743.583 72.48 747.783 72.48C749.631 72.48 751.767 72.96 753.087 73.656L751.479 77.64C750.591 77.256 749.439 77.016 748.479 77.04C746.871 77.088 746.343 77.376 746.511 78.048C746.871 79.44 753.711 77.016 753.711 82.392C753.711 85.344 750.975 87.12 746.463 87.12C744.159 87.12 741.183 86.544 740.055 85.896L741.735 81.36C742.359 81.768 744.303 83.16 746.079 83.28C747.615 83.4 747.783 82.368 747.543 81.984C746.775 80.808 740.487 82.416 740.487 77.256ZM753.19 77.256C753.19 74.52 756.286 72.48 760.486 72.48C762.334 72.48 764.47 72.96 765.79 73.656L764.182 77.64C763.294 77.256 762.142 77.016 761.182 77.04C759.574 77.088 759.046 77.376 759.214 78.048C759.574 79.44 766.414 77.016 766.414 82.392C766.414 85.344 763.678 87.12 759.166 87.12C756.862 87.12 753.886 86.544 752.758 85.896L754.438 81.36C755.062 81.768 757.006 83.16 758.782 83.28C760.318 83.4 760.486 82.368 760.246 81.984C759.478 80.808 753.19 82.416 753.19 77.256Z" fill="#611FB8"/>
<path d="M584.258 103.984C584.258 106.048 583.154 108.128 579.922 108.128C579.73 108.128 579.538 108.128 579.346 108.112L579.41 106.256C579.49 106.256 579.586 106.272 579.666 106.272C580.994 106.272 581.762 105.504 581.762 103.776V96.704H584.258V103.984ZM594.283 103.744C594.283 106.16 592.923 108.304 590.155 108.304C587.355 108.304 586.107 106.144 586.107 103.712C586.107 101.296 587.467 99.152 590.235 99.152C593.035 99.152 594.283 101.312 594.283 103.744ZM591.947 103.76C591.947 102.56 591.659 100.912 590.235 100.912C588.811 100.912 588.443 102.496 588.443 103.696C588.443 104.896 588.731 106.544 590.155 106.544C591.579 106.544 591.947 104.96 591.947 103.76ZM598.492 97.184C598.492 97.872 598.012 98.368 597.244 98.368C596.476 98.368 595.98 97.872 595.98 97.184C595.98 96.496 596.476 96 597.244 96C598.012 96 598.492 96.496 598.492 97.184ZM598.348 108H596.108V99.456H598.348V108ZM608.136 108H605.896V102.592C605.896 101.728 605.592 101.136 604.616 101.136C604.168 101.136 603.768 101.328 603.528 101.552C603.096 101.968 603.064 102.176 603.064 102.752V108H600.824V99.456H602.904V100.672C603.512 99.76 604.312 99.184 605.48 99.184C607.384 99.184 608.136 100.464 608.136 102.128V108ZM620.391 105.44C620.391 107.104 619.047 108.272 616.807 108.272C615.735 108.272 614.775 107.904 614.295 107.616L614.983 105.968C615.527 106.352 616.311 106.608 616.983 106.608C617.575 106.608 618.295 106.4 618.295 105.728C618.295 105.168 617.831 104.992 617.031 104.688L616.327 104.416C615.223 103.984 614.487 103.328 614.487 102.08C614.487 100.464 615.847 99.184 617.847 99.184C618.919 99.184 619.703 99.52 620.151 99.744L619.463 101.392C618.967 101.072 618.279 100.88 617.735 100.88C616.823 100.88 616.551 101.344 616.551 101.728C616.551 102.176 616.967 102.432 617.559 102.64L618.311 102.912C619.527 103.36 620.391 104.016 620.391 105.44ZM629.72 103.744C629.72 106.16 628.36 108.304 625.592 108.304C622.792 108.304 621.544 106.144 621.544 103.712C621.544 101.296 622.904 99.152 625.672 99.152C628.472 99.152 629.72 101.312 629.72 103.744ZM627.384 103.76C627.384 102.56 627.096 100.912 625.672 100.912C624.248 100.912 623.88 102.496 623.88 103.696C623.88 104.896 624.168 106.544 625.592 106.544C627.016 106.544 627.384 104.96 627.384 103.76ZM637.811 107.568C637.363 107.904 636.259 108.272 635.219 108.272C632.595 108.272 631.091 106.336 631.091 103.84C631.091 101.504 632.323 99.184 635.219 99.184C636.371 99.184 637.267 99.488 637.827 99.792L637.027 101.664C636.739 101.472 636.099 101.088 635.363 101.088C634.067 101.088 633.427 102.288 633.427 103.792C633.427 105.44 634.483 106.416 635.491 106.416C636.131 106.416 636.787 106.144 637.171 105.904L637.811 107.568ZM642.023 97.184C642.023 97.872 641.543 98.368 640.775 98.368C640.007 98.368 639.511 97.872 639.511 97.184C639.511 96.496 640.007 96 640.775 96C641.543 96 642.023 96.496 642.023 97.184ZM641.879 108H639.639V99.456H641.879V108ZM651.491 107.952C651.155 108.032 650.595 108.16 650.067 108.16C649.267 108.16 648.867 107.664 648.739 106.992C648.035 107.824 647.379 108.24 646.211 108.24C644.707 108.24 643.683 107.152 643.683 105.696C643.683 103.376 646.115 102.928 648.003 102.928C648.355 102.928 648.563 102.912 648.563 102.624V102.064C648.563 101.456 648.179 100.88 646.995 100.88C646.003 100.88 645.251 101.344 644.883 101.664L644.099 100.064C645.043 99.456 646.083 99.184 647.555 99.184C648.755 99.184 650.691 99.616 650.691 102.08V106.016C650.691 106.32 650.723 106.576 650.995 106.576C651.091 106.576 651.267 106.528 651.363 106.496L651.491 107.952ZM648.547 105.12V104.32C648.307 104.304 648.067 104.304 647.875 104.304C647.091 104.304 645.907 104.496 645.907 105.52C645.907 106.144 646.355 106.592 646.979 106.592C647.475 106.592 647.891 106.432 648.179 106.128C648.435 105.856 648.547 105.536 648.547 105.12ZM655.267 108H653.027V96.16H655.267V108ZM668.155 107.568C667.707 107.904 666.603 108.272 665.563 108.272C662.939 108.272 661.435 106.336 661.435 103.84C661.435 101.504 662.667 99.184 665.563 99.184C666.715 99.184 667.611 99.488 668.171 99.792L667.371 101.664C667.083 101.472 666.443 101.088 665.707 101.088C664.411 101.088 663.771 102.288 663.771 103.792C663.771 105.44 664.827 106.416 665.835 106.416C666.475 106.416 667.131 106.144 667.515 105.904L668.155 107.568ZM676.835 107.952C676.499 108.032 675.939 108.16 675.411 108.16C674.611 108.16 674.211 107.664 674.083 106.992C673.379 107.824 672.723 108.24 671.555 108.24C670.051 108.24 669.027 107.152 669.027 105.696C669.027 103.376 671.459 102.928 673.347 102.928C673.699 102.928 673.907 102.912 673.907 102.624V102.064C673.907 101.456 673.523 100.88 672.339 100.88C671.347 100.88 670.595 101.344 670.227 101.664L669.443 100.064C670.387 99.456 671.427 99.184 672.899 99.184C674.099 99.184 676.035 99.616 676.035 102.08V106.016C676.035 106.32 676.067 106.576 676.339 106.576C676.435 106.576 676.611 106.528 676.707 106.496L676.835 107.952ZM673.891 105.12V104.32C673.651 104.304 673.411 104.304 673.219 104.304C672.435 104.304 671.251 104.496 671.251 105.52C671.251 106.144 671.699 106.592 672.323 106.592C672.819 106.592 673.235 106.432 673.523 106.128C673.779 105.856 673.891 105.536 673.891 105.12ZM690.179 108H687.939V102.592C687.939 101.728 687.635 101.136 686.787 101.136C686.371 101.136 686.035 101.312 685.827 101.536C685.443 101.952 685.395 102.208 685.395 102.752V108H683.155V102.592C683.155 101.728 682.851 101.136 682.003 101.136C681.587 101.136 681.235 101.312 681.027 101.536C680.643 101.952 680.611 102.176 680.611 102.752V108H678.371V99.456H680.451V100.592C681.027 99.728 681.683 99.184 682.819 99.184C683.955 99.184 684.707 99.712 685.123 100.72C685.715 99.824 686.451 99.184 687.603 99.184C689.443 99.184 690.179 100.464 690.179 102.128V108ZM700.177 103.632C700.177 105.552 699.169 108.272 696.433 108.272C695.825 108.272 695.105 108.08 694.673 107.664V111.2H692.433V99.456H694.513V100.72C695.105 99.792 695.825 99.184 697.009 99.184C699.249 99.184 700.177 101.568 700.177 103.632ZM697.841 103.952C697.841 102.8 697.553 101.12 696.129 101.12C695.681 101.12 695.361 101.312 695.105 101.552C694.721 101.92 694.673 102.144 694.673 102.64V105.552C694.673 106.144 695.025 106.656 696.049 106.656C697.489 106.656 697.841 105.12 697.841 103.952ZM709.007 107.952C708.671 108.032 708.111 108.16 707.583 108.16C706.783 108.16 706.383 107.664 706.255 106.992C705.551 107.824 704.895 108.24 703.727 108.24C702.223 108.24 701.199 107.152 701.199 105.696C701.199 103.376 703.631 102.928 705.519 102.928C705.871 102.928 706.079 102.912 706.079 102.624V102.064C706.079 101.456 705.695 100.88 704.511 100.88C703.519 100.88 702.767 101.344 702.399 101.664L701.615 100.064C702.559 99.456 703.599 99.184 705.071 99.184C706.271 99.184 708.207 99.616 708.207 102.08V106.016C708.207 106.32 708.239 106.576 708.511 106.576C708.607 106.576 708.783 106.528 708.879 106.496L709.007 107.952ZM706.063 105.12V104.32C705.823 104.304 705.583 104.304 705.391 104.304C704.607 104.304 703.423 104.496 703.423 105.52C703.423 106.144 703.871 106.592 704.495 106.592C704.991 106.592 705.407 106.432 705.695 106.128C705.951 105.856 706.063 105.536 706.063 105.12ZM713.055 97.184C713.055 97.872 712.575 98.368 711.807 98.368C711.039 98.368 710.543 97.872 710.543 97.184C710.543 96.496 711.039 96 711.807 96C712.575 96 713.055 96.496 713.055 97.184ZM712.911 108H710.671V99.456H712.911V108ZM722.65 108.384C722.65 110.544 720.458 111.44 718.458 111.44C717.098 111.44 714.682 110.992 714.682 109.184C714.682 108.208 715.322 107.696 715.93 107.456V107.424C715.546 107.248 715.082 106.768 715.082 106.08C715.082 105.184 715.578 104.56 716.01 104.256C715.434 103.712 715.162 102.976 715.162 102.16C715.162 100.592 716.266 99.184 718.506 99.184C719.162 99.184 719.866 99.36 720.314 99.616H722.666V101.216H721.642C721.706 101.408 721.802 101.808 721.802 102.144C721.802 103.712 720.682 105.072 718.442 105.072C718.026 105.072 717.626 104.992 717.338 104.912C717.082 104.848 717.002 104.816 716.81 105.024C716.746 105.088 716.682 105.328 716.682 105.488C716.682 105.856 716.954 106.144 717.482 106.144H720.218C721.626 106.144 722.65 106.912 722.65 108.384ZM719.69 102.144C719.69 101.472 719.434 100.56 718.506 100.56C717.578 100.56 717.274 101.504 717.274 102.16C717.274 102.848 717.53 103.712 718.458 103.712C719.386 103.712 719.69 102.8 719.69 102.144ZM720.458 108.768C720.458 108.144 720.042 107.92 719.546 107.92H717.162C716.858 107.92 716.602 108.128 716.602 108.752C716.602 109.712 717.77 109.984 718.458 109.984C719.898 109.984 720.458 109.36 720.458 108.768ZM731.37 108H729.13V102.592C729.13 101.728 728.826 101.136 727.85 101.136C727.402 101.136 727.002 101.328 726.762 101.552C726.33 101.968 726.298 102.176 726.298 102.752V108H724.058V99.456H726.138V100.672C726.746 99.76 727.546 99.184 728.714 99.184C730.618 99.184 731.37 100.464 731.37 102.128V108ZM739.141 105.44C739.141 107.104 737.797 108.272 735.557 108.272C734.485 108.272 733.525 107.904 733.045 107.616L733.733 105.968C734.277 106.352 735.061 106.608 735.733 106.608C736.325 106.608 737.045 106.4 737.045 105.728C737.045 105.168 736.581 104.992 735.781 104.688L735.077 104.416C733.973 103.984 733.237 103.328 733.237 102.08C733.237 100.464 734.597 99.184 736.597 99.184C737.669 99.184 738.453 99.52 738.901 99.744L738.213 101.392C737.717 101.072 737.029 100.88 736.485 100.88C735.573 100.88 735.301 101.344 735.301 101.728C735.301 102.176 735.717 102.432 736.309 102.64L737.061 102.912C738.277 103.36 739.141 104.016 739.141 105.44ZM589.461 128.048C589.045 128.16 588.261 128.272 587.509 128.272C585.989 128.272 585.045 127.456 585.045 125.808V121.216H583.621V119.616H585.045V117.888L587.285 117.168V119.616H589.237V121.216H587.285V125.536C587.285 126.384 587.749 126.576 588.261 126.576C588.725 126.576 589.045 126.464 589.237 126.4L589.461 128.048ZM598.493 123.744C598.493 126.16 597.133 128.304 594.365 128.304C591.565 128.304 590.317 126.144 590.317 123.712C590.317 121.296 591.677 119.152 594.445 119.152C597.245 119.152 598.493 121.312 598.493 123.744ZM596.157 123.76C596.157 122.56 595.869 120.912 594.445 120.912C593.021 120.912 592.653 122.496 592.653 123.696C592.653 124.896 592.941 126.544 594.365 126.544C595.789 126.544 596.157 124.96 596.157 123.76ZM611.635 123.184C611.635 123.456 611.619 123.824 611.587 124.112H606.291C606.291 124.128 606.291 124.144 606.291 124.16C606.291 125.68 607.395 126.496 608.835 126.496C609.603 126.496 610.419 126.176 610.867 125.936L611.459 127.6C610.803 127.904 609.667 128.272 608.419 128.272C605.747 128.272 604.067 126.448 604.067 123.792C604.067 121.536 605.283 119.184 608.019 119.184C610.659 119.184 611.635 121.216 611.635 123.184ZM609.523 122.592C609.603 121.696 609.059 120.752 607.923 120.752C606.643 120.752 606.243 121.84 606.243 122.592H609.523ZM620.686 127.952C620.35 128.032 619.79 128.16 619.262 128.16C618.462 128.16 618.062 127.664 617.934 126.992C617.23 127.824 616.574 128.24 615.406 128.24C613.902 128.24 612.878 127.152 612.878 125.696C612.878 123.376 615.31 122.928 617.198 122.928C617.55 122.928 617.758 122.912 617.758 122.624V122.064C617.758 121.456 617.374 120.88 616.19 120.88C615.198 120.88 614.446 121.344 614.078 121.664L613.294 120.064C614.238 119.456 615.278 119.184 616.75 119.184C617.95 119.184 619.886 119.616 619.886 122.08V126.016C619.886 126.32 619.918 126.576 620.19 126.576C620.286 126.576 620.462 126.528 620.558 126.496L620.686 127.952ZM617.742 125.12V124.32C617.502 124.304 617.262 124.304 617.07 124.304C616.286 124.304 615.102 124.496 615.102 125.52C615.102 126.144 615.55 126.592 616.174 126.592C616.67 126.592 617.086 126.432 617.374 126.128C617.63 125.856 617.742 125.536 617.742 125.12ZM627.182 119.408L626.59 121.648C626.43 121.568 626.11 121.424 625.806 121.424C625.326 121.424 625.07 121.568 624.862 121.76C624.558 122.032 624.542 122.384 624.542 122.848V128H622.302V121.616C622.302 120.88 622.238 119.856 622.222 119.456H624.238V120.736C624.75 119.92 625.31 119.248 626.366 119.248C626.686 119.248 627.006 119.344 627.182 119.408ZM635.894 128H633.654V122.592C633.654 121.728 633.35 121.136 632.374 121.136C631.926 121.136 631.526 121.328 631.286 121.552C630.854 121.968 630.822 122.176 630.822 122.752V128H628.582V119.456H630.662V120.672C631.27 119.76 632.07 119.184 633.238 119.184C635.142 119.184 635.894 120.464 635.894 122.128V128ZM654.437 128H652.197V122.592C652.197 121.728 651.893 121.136 651.045 121.136C650.629 121.136 650.293 121.312 650.085 121.536C649.701 121.952 649.653 122.208 649.653 122.752V128H647.413V122.592C647.413 121.728 647.109 121.136 646.261 121.136C645.845 121.136 645.493 121.312 645.285 121.536C644.901 121.952 644.869 122.176 644.869 122.752V128H642.629V119.456H644.709V120.592C645.285 119.728 645.941 119.184 647.077 119.184C648.213 119.184 648.965 119.712 649.381 120.72C649.973 119.824 650.709 119.184 651.861 119.184C653.701 119.184 654.437 120.464 654.437 122.128V128ZM664.259 123.744C664.259 126.16 662.899 128.304 660.131 128.304C657.331 128.304 656.083 126.144 656.083 123.712C656.083 121.296 657.443 119.152 660.211 119.152C663.011 119.152 664.259 121.312 664.259 123.744ZM661.923 123.76C661.923 122.56 661.635 120.912 660.211 120.912C658.787 120.912 658.419 122.496 658.419 123.696C658.419 124.896 658.707 126.544 660.131 126.544C661.555 126.544 661.923 124.96 661.923 123.76ZM670.917 119.408L670.325 121.648C670.165 121.568 669.845 121.424 669.541 121.424C669.061 121.424 668.805 121.568 668.597 121.76C668.293 122.032 668.277 122.384 668.277 122.848V128H666.037V121.616C666.037 120.88 665.973 119.856 665.957 119.456H667.973V120.736C668.485 119.92 669.045 119.248 670.101 119.248C670.421 119.248 670.741 119.344 670.917 119.408ZM678.823 123.184C678.823 123.456 678.807 123.824 678.775 124.112H673.479C673.479 124.128 673.479 124.144 673.479 124.16C673.479 125.68 674.583 126.496 676.023 126.496C676.791 126.496 677.607 126.176 678.055 125.936L678.647 127.6C677.991 127.904 676.855 128.272 675.607 128.272C672.935 128.272 671.255 126.448 671.255 123.792C671.255 121.536 672.471 119.184 675.207 119.184C677.847 119.184 678.823 121.216 678.823 123.184ZM676.711 122.592C676.791 121.696 676.247 120.752 675.111 120.752C673.831 120.752 673.431 121.84 673.431 122.592H676.711ZM692.966 123.632C692.966 125.552 691.958 128.272 689.222 128.272C688.614 128.272 687.894 128.08 687.462 127.664V131.2H685.222V119.456H687.302V120.72C687.894 119.792 688.614 119.184 689.798 119.184C692.038 119.184 692.966 121.568 692.966 123.632ZM690.63 123.952C690.63 122.8 690.342 121.12 688.918 121.12C688.47 121.12 688.15 121.312 687.894 121.552C687.51 121.92 687.462 122.144 687.462 122.64V125.552C687.462 126.144 687.814 126.656 688.838 126.656C690.278 126.656 690.63 125.12 690.63 123.952ZM702.509 123.744C702.509 126.16 701.149 128.304 698.381 128.304C695.581 128.304 694.333 126.144 694.333 123.712C694.333 121.296 695.693 119.152 698.461 119.152C701.261 119.152 702.509 121.312 702.509 123.744ZM700.173 123.76C700.173 122.56 699.885 120.912 698.461 120.912C697.037 120.912 696.669 122.496 696.669 123.696C696.669 124.896 696.957 126.544 698.381 126.544C699.805 126.544 700.173 124.96 700.173 123.76ZM706.719 117.184C706.719 117.872 706.239 118.368 705.471 118.368C704.703 118.368 704.207 117.872 704.207 117.184C704.207 116.496 704.703 116 705.471 116C706.239 116 706.719 116.496 706.719 117.184ZM706.575 128H704.335V119.456H706.575V128ZM716.362 128H714.122V122.592C714.122 121.728 713.818 121.136 712.842 121.136C712.394 121.136 711.994 121.328 711.754 121.552C711.322 121.968 711.29 122.176 711.29 122.752V128H709.05V119.456H711.13V120.672C711.738 119.76 712.538 119.184 713.706 119.184C715.61 119.184 716.362 120.464 716.362 122.128V128ZM723.461 128.048C723.045 128.16 722.261 128.272 721.509 128.272C719.989 128.272 719.045 127.456 719.045 125.808V121.216H717.621V119.616H719.045V117.888L721.285 117.168V119.616H723.237V121.216H721.285V125.536C721.285 126.384 721.749 126.576 722.261 126.576C722.725 126.576 723.045 126.464 723.237 126.4L723.461 128.048ZM730.445 125.44C730.445 127.104 729.101 128.272 726.861 128.272C725.789 128.272 724.829 127.904 724.349 127.616L725.037 125.968C725.581 126.352 726.365 126.608 727.037 126.608C727.629 126.608 728.349 126.4 728.349 125.728C728.349 125.168 727.885 124.992 727.085 124.688L726.381 124.416C725.277 123.984 724.541 123.328 724.541 122.08C724.541 120.464 725.901 119.184 727.901 119.184C728.973 119.184 729.757 119.52 730.205 119.744L729.517 121.392C729.021 121.072 728.333 120.88 727.789 120.88C726.877 120.88 726.605 121.344 726.605 121.728C726.605 122.176 727.021 122.432 727.613 122.64L728.365 122.912C729.581 123.36 730.445 124.016 730.445 125.44ZM734.655 126.816C734.655 127.552 734.143 128.096 733.311 128.096C732.479 128.096 731.951 127.552 731.951 126.816C731.951 126.08 732.479 125.536 733.311 125.536C734.143 125.536 734.655 126.08 734.655 126.816Z" fill="#FEFFF3"/>
<path d="M706 28.5C704.619 28.5 703.5 29.6193 703.5 31C703.5 32.3807 704.619 33.5 706 33.5V28.5ZM891.768 32.7678C892.744 31.7915 892.744 30.2085 891.768 29.2322L875.858 13.3223C874.882 12.346 873.299 12.346 872.322 13.3223C871.346 14.2986 871.346 15.8816 872.322 16.8579L886.464 31L872.322 45.1421C871.346 46.1184 871.346 47.7014 872.322 48.6777C873.299 49.654 874.882 49.654 875.858 48.6777L891.768 32.7678ZM706 33.5H890V28.5H706V33.5Z" fill="#611FB8"/>
<path d="M934.395 3.5778C935.743 3.01958 937.257 3.01958 938.605 3.5778L954.049 9.97484C955.396 10.5331 956.467 11.6038 957.025 12.9514L963.422 28.3952C963.98 29.7429 963.98 31.2571 963.422 32.6048L957.025 48.0486C956.467 49.3962 955.396 50.4669 954.049 51.0252L938.605 57.4222C937.257 57.9804 935.743 57.9804 934.395 57.4222L918.951 51.0252C917.604 50.4669 916.533 49.3962 915.975 48.0486L909.578 32.6048C909.02 31.2571 909.02 29.7429 909.578 28.3952L915.975 12.9514C916.533 11.6038 917.604 10.5331 918.951 9.97484L934.395 3.5778Z" stroke="#611FB8" stroke-width="5"/>
<path d="M934.716 17.5189C935.457 16.058 937.543 16.058 938.284 17.5189L940.964 22.8053C941.254 23.3789 941.803 23.7777 942.439 23.877L948.294 24.7921C949.913 25.045 950.558 27.0294 949.397 28.1852L945.197 32.3674C944.742 32.8212 944.532 33.4665 944.634 34.1015L945.573 39.9534C945.833 41.5706 944.145 42.797 942.687 42.0504L937.412 39.3489C936.839 39.0557 936.161 39.0557 935.588 39.3489L930.313 42.0504C928.855 42.797 927.167 41.5706 927.427 39.9534L928.366 34.1015C928.468 33.4665 928.258 32.8212 927.803 32.3674L923.603 28.1852C922.442 27.0294 923.087 25.045 924.706 24.7921L930.561 23.877C931.197 23.7777 931.746 23.3789 932.036 22.8053L934.716 17.5189Z" fill="#C7B4FE"/>
<path d="M839.31 87.264C833.838 87.264 830.957 84.288 830.957 78.696C830.957 73.56 834.294 70.08 839.166 70.08C842.046 70.08 844.446 70.8 845.766 72.096L843.294 76.104C842.334 75.384 840.894 74.928 839.622 74.928C837.773 74.928 836.526 76.32 836.526 78.408C836.526 80.616 837.726 81.936 839.67 81.936C841.278 81.936 842.958 80.952 844.35 79.248L847.158 83.52C845.166 85.992 842.766 87.264 839.31 87.264ZM846.209 86.904L846.617 72.36L852.065 72.72L852.305 82.008L856.049 81.528L856.481 87.048L846.209 86.904ZM855.532 86.688L860.332 72.504L867.244 72.696L871.324 86.448L864.964 87.096L864.556 84.432H862.204L861.844 87.168L855.532 86.688ZM862.372 81.504H864.964L863.764 76.536H863.332L862.372 81.504ZM870.871 75.384L871.111 71.688L876.487 71.256L876.799 75.24L870.871 75.384ZM870.607 86.76L871.087 76.68L876.655 76.32L877.063 87.24L870.607 86.76ZM876.585 86.76L878.553 72.672L884.745 72.576L886.425 78.144L886.689 78.072L887.529 72.432L893.697 72.672L896.529 87.072L890.361 87.48L889.521 80.568L889.209 80.544L888.105 84.744H885.009L883.569 80.544L883.257 80.568L882.753 87.168L876.585 86.76ZM901.071 72.984L907.743 72.528L909.351 78.528H909.783L910.863 72.36L917.583 73.176L912.327 82.968L912.567 86.832L906.159 87.288L906.351 83.28L901.071 72.984ZM915.192 79.728C915.192 75.288 918.216 72.36 922.488 72.36C926.736 72.36 929.808 75.288 929.808 79.728C929.808 84.168 926.736 87.096 922.488 87.096C918.216 87.096 915.192 84.168 915.192 79.728ZM919.44 79.92C919.44 81.6 920.568 82.776 922.2 82.776C923.784 82.776 924.936 81.6 924.936 79.92C924.936 78.216 923.784 77.088 922.2 77.088C920.568 77.088 919.44 78.216 919.44 79.92ZM936.2 87.144C929.216 87.144 927.128 82.536 930.368 73.008L935.552 72.384C934.616 76.944 933.944 82.224 936.368 82.224C938.792 82.224 938.168 78.456 937.544 72.456L942.56 72.72C945.632 81.072 943.16 87.144 936.2 87.144ZM954.774 82.08V82.176L958.446 85.32L953.91 88.992L949.422 83.256L949.278 83.28L949.35 87.24L943.71 87L943.518 73.512C945.51 72.912 948.15 72.36 950.502 72.384C954.462 72.432 957.126 74.544 957.126 77.64C957.126 79.584 956.214 81.288 954.774 82.08ZM948.558 80.088C949.11 80.136 949.326 80.136 949.878 80.136C951.006 80.136 951.678 79.56 951.678 78.408C951.678 77.256 951.078 76.608 949.974 76.608C949.23 76.608 948.774 76.8 948.462 77.064L948.558 80.088ZM973.18 86.76L967.204 87.24L967.492 77.616L963.004 77.688L963.436 72.456L976.972 73.008L977.38 77.448L972.844 77.52L973.18 86.76ZM975.942 79.728C975.942 75.288 978.966 72.36 983.238 72.36C987.486 72.36 990.558 75.288 990.558 79.728C990.558 84.168 987.486 87.096 983.238 87.096C978.966 87.096 975.942 84.168 975.942 79.728ZM980.19 79.92C980.19 81.6 981.318 82.776 982.95 82.776C984.534 82.776 985.686 81.6 985.686 79.92C985.686 78.216 984.534 77.088 982.95 77.088C981.318 77.088 980.19 78.216 980.19 79.92ZM990.206 86.928L990.59 72.672L996.542 72.432L995.798 78.144L996.11 78.216L999.614 72.336L1004.68 74.52L1000.02 80.208L1005.35 84.6L1000.17 88.416L995.966 82.464L995.726 82.536L996.158 87.168L990.206 86.928ZM1003.78 86.88L1003.54 72.768L1014.97 72.456L1015.16 76.896L1009.23 76.584L1009.25 78.216L1013.55 77.904L1013.41 80.904L1009.3 80.976L1009.33 82.584L1015.73 81.912L1015.21 87.168L1003.78 86.88ZM1015.01 86.784L1016.33 73.008L1021.54 72.504L1024.16 79.104L1024.54 78.936L1023.68 72.672L1029.63 72.744L1029.32 86.664L1024.11 87.168L1020.36 79.752L1020.03 79.824L1021.47 87.24L1015.01 86.784ZM1029.81 77.256C1029.81 74.52 1032.91 72.48 1037.11 72.48C1038.96 72.48 1041.09 72.96 1042.41 73.656L1040.8 77.64C1039.92 77.256 1038.76 77.016 1037.8 77.04C1036.2 77.088 1035.67 77.376 1035.84 78.048C1036.2 79.44 1043.04 77.016 1043.04 82.392C1043.04 85.344 1040.3 87.12 1035.79 87.12C1033.48 87.12 1030.51 86.544 1029.38 85.896L1031.06 81.36C1031.68 81.768 1033.63 83.16 1035.4 83.28C1036.94 83.4 1037.11 82.368 1036.87 81.984C1036.1 80.808 1029.81 82.416 1029.81 77.256Z" fill="#611FB8"/>
</svg>
